<svg width="52" height="56" viewBox="0 0 52 56" fill="none" xmlns="http://www.w3.org/2000/svg">
<g filter="url(#filter0_d_325_17151)">
<path d="M35.4189 9.49814C33.4504 8.81088 31.174 9.03338 28.4682 10.1607L27.7021 8.76542C26.3211 6.25029 23.9322 4.40805 21.1436 3.741C18.3166 3.04726 15.428 3.58203 13.0227 5.21334C8.89354 8.03014 7.55448 14.2848 10.0746 18.8745L10.6592 19.9393C8.25588 21.6173 6.84639 23.4187 6.3698 25.4485C5.68853 28.4031 7.19485 31.0166 8.4036 32.7423L15.2957 42.2667C17.6445 45.6362 21.1021 48.5165 28.9483 44.2083L39.1301 38.6176C46.9762 34.3094 46.4017 29.8462 44.8293 26.0742L40.4716 15.1104C39.6744 13.1827 38.2593 10.519 35.4189 9.49814ZM14.6793 7.62492C16.4133 6.45779 18.4593 6.0751 20.4849 6.56371C22.4822 7.04399 24.1779 8.35892 25.1658 10.1581L25.8714 11.4432L13.1351 18.4365L12.6109 17.4818C10.8166 14.214 11.7751 9.60186 14.6793 7.62492ZM18.5856 28.7524L18.5674 28.7624C17.5638 29.3135 16.2891 28.9382 15.7347 27.9285C15.1802 26.9187 15.5477 25.6417 16.5513 25.0907C17.5731 24.5296 18.8479 24.9049 19.4023 25.9146C19.9567 26.9243 19.5892 28.2013 18.5856 28.7524ZM31.3585 21.7391L31.3402 21.7491C30.3366 22.3001 29.0619 21.9248 28.5075 20.9151C27.9531 19.9054 28.3206 18.6284 29.3242 18.0773C30.346 17.5163 31.6207 17.8916 32.1751 18.9013C32.7295 19.911 32.3621 21.188 31.3585 21.7391Z" fill="#BDAEFF"/>
<path d="M12.0568 3.78857C14.8568 1.88962 18.2402 1.25898 21.5436 2.06662C24.8115 2.8483 27.5997 5.00235 29.211 7.9369L29.2641 8.03362C31.4722 7.32444 33.5598 7.16503 35.5138 7.72258L35.9864 7.87309L35.9944 7.8754L36.0015 7.87819C39.5847 9.16624 41.2416 12.4681 42.0622 14.4524L42.0718 14.4739L46.4173 25.4112L46.4186 25.4116C47.2542 27.4159 47.9748 29.9375 47.1599 32.6417C46.3393 35.365 44.0939 37.8568 39.9588 40.1274L29.7774 45.7178C25.6423 47.9883 22.334 48.5456 19.5936 47.7734C16.8733 47.0068 15.1304 45.0407 13.8833 43.2517L13.8837 43.2504L7.00841 33.7522L7.00097 33.7407L6.99315 33.7305C5.75816 31.9674 3.83083 28.7975 4.69214 25.0618L4.69407 25.0552C5.20022 22.8995 6.51092 21.0683 8.44156 19.4647C5.70058 14.184 7.20568 7.09729 12.0525 3.79092L12.0568 3.78857ZM17.3797 26.6003C17.2187 26.689 17.1426 26.9147 17.2437 27.0994C17.3452 27.2841 17.577 27.3417 17.7383 27.2534L17.7571 27.2431C17.9184 27.1544 17.9941 26.9279 17.8926 26.7431C17.7963 26.5683 17.5689 26.4964 17.3797 26.6003ZM30.1531 19.5866C29.9918 19.6752 29.9151 19.9014 30.0163 20.0862C30.1178 20.2711 30.3503 20.3283 30.5117 20.2398L30.5297 20.2299C30.691 20.1413 30.7675 19.9143 30.666 19.7294C30.5698 19.5547 30.3423 19.4828 30.1531 19.5866ZM20.0811 8.23735C18.5351 7.86445 16.9833 8.14931 15.6418 9.05165C14.6323 9.74156 13.8743 10.9598 13.5684 12.4217C13.3088 13.6624 13.4032 14.9625 13.8509 16.079L23.5272 10.7659C22.7549 9.49819 21.5168 8.58265 20.0824 8.23774L20.0811 8.23735Z" stroke="white" stroke-width="3.44367"/>
</g>
<defs>
<filter id="filter0_d_325_17151" x="-5.38826e-05" y="0" width="51.9946" height="55.3341" filterUnits="userSpaceOnUse" color-interpolation-filters="sRGB">
<feFlood flood-opacity="0" result="BackgroundImageFix"/>
<feColorMatrix in="SourceAlpha" type="matrix" values="0 0 0 0 0 0 0 0 0 0 0 0 0 0 0 0 0 0 127 0" result="hardAlpha"/>
<feOffset dy="2.75494"/>
<feGaussianBlur stdDeviation="1.37747"/>
<feComposite in2="hardAlpha" operator="out"/>
<feColorMatrix type="matrix" values="0 0 0 0 0 0 0 0 0 0 0 0 0 0 0 0 0 0 0.25 0"/>
<feBlend mode="normal" in2="BackgroundImageFix" result="effect1_dropShadow_325_17151"/>
<feBlend mode="normal" in="SourceGraphic" in2="effect1_dropShadow_325_17151" result="shape"/>
</filter>
</defs>
</svg>
