<svg width="44" height="49" viewBox="0 0 44 49" fill="none" xmlns="http://www.w3.org/2000/svg">
<g filter="url(#filter0_d_325_17366)">
<path d="M36.4748 19.1681C37.3722 11.1711 32.2276 5.6797 26.7058 3.79781C26.7058 3.79781 26.7058 3.79781 26.6902 3.79249C21.1841 1.91592 13.7465 3.10119 9.57348 9.9818C4.91692 17.6681 7.44787 26.3842 10.3999 32.3325C11.4935 34.5383 13.335 36.0825 15.4563 36.8054C17.5777 37.5284 19.9789 37.4303 22.1764 36.3461C28.1466 33.4387 35.4682 28.0984 36.4748 19.1681ZM20.2799 22.6524C17.5658 21.7274 16.1402 18.7076 17.0951 15.9059C18.0499 13.1043 21.023 11.5836 23.7371 12.5086C26.4511 13.4336 27.8767 16.4534 26.9219 19.2551C25.9671 22.0567 22.994 23.5774 20.2799 22.6524Z" fill="#B3DFC2"/>
<path d="M27.1901 2.37811C33.1446 4.40765 38.778 10.314 38.0072 18.9231L37.9659 19.3351L37.9655 19.336C36.8689 29.0656 28.9217 34.7263 22.8396 37.6897L22.8402 37.6909C20.2779 38.955 17.4633 39.0742 14.9728 38.2254C12.4812 37.3763 10.328 35.564 9.05623 32.9993C6.04788 26.9375 3.21601 17.5818 8.29085 9.20492L8.29116 9.20399C12.9023 1.60121 21.1445 0.317696 27.1743 2.37276L27.1901 2.37811ZM23.2534 13.9288C21.3656 13.2854 19.2168 14.3298 18.5147 16.3901C17.8127 18.4503 18.8763 20.5897 20.764 21.2331C22.6516 21.8762 24.7996 20.8314 25.5018 18.7715C26.204 16.7113 25.141 14.5723 23.2534 13.9288Z" stroke="white" stroke-width="3"/>
</g>
<defs>
<filter id="filter0_d_325_17366" x="0" y="0" width="43.5787" height="48.2695" filterUnits="userSpaceOnUse" color-interpolation-filters="sRGB">
<feFlood flood-opacity="0" result="BackgroundImageFix"/>
<feColorMatrix in="SourceAlpha" type="matrix" values="0 0 0 0 0 0 0 0 0 0 0 0 0 0 0 0 0 0 127 0" result="hardAlpha"/>
<feOffset dy="4"/>
<feGaussianBlur stdDeviation="2"/>
<feComposite in2="hardAlpha" operator="out"/>
<feColorMatrix type="matrix" values="0 0 0 0 0 0 0 0 0 0 0 0 0 0 0 0 0 0 0.15 0"/>
<feBlend mode="normal" in2="BackgroundImageFix" result="effect1_dropShadow_325_17366"/>
<feBlend mode="normal" in="SourceGraphic" in2="effect1_dropShadow_325_17366" result="shape"/>
</filter>
</defs>
</svg>
