<svg width="40" height="43" viewBox="0 0 40 43" fill="none" xmlns="http://www.w3.org/2000/svg">
<g filter="url(#filter0_d_325_17363)">
<path d="M22.9192 2.64616C24.7851 2.14619 26.4469 2.11912 27.8811 2.84932C29.2177 3.52984 30.177 4.77744 30.93 6.44036L31.0783 6.77875L31.0907 6.80981L32.3201 10.0169L32.3233 10.0252C32.8561 11.451 32.865 12.9983 32.3074 14.3879L32.3062 14.3872C31.6208 16.175 30.1204 17.4691 28.2506 17.9701C26.8491 18.3455 25.3649 18.1663 24.0832 17.5399C23.3423 18.7223 22.1706 19.5992 20.7345 19.984C19.2981 20.3688 17.8194 20.1804 16.5811 19.5157C15.7867 20.7176 14.5772 21.6338 13.1589 22.0139C11.328 22.5045 9.43426 22.1621 7.95436 21.0295L7.95461 21.0305C6.73077 20.104 5.92569 18.7259 5.66319 17.1839L5.66192 17.1792L5.10602 13.8179L5.10235 13.7966L5.09987 13.776C4.85648 11.7866 5.03091 10.0924 5.9005 8.74607C6.77653 7.38999 8.23072 6.58198 10.1018 6.08056L22.9192 2.64616Z" fill="#F28EE6" stroke="white" stroke-width="2"/>
<path d="M20.5921 22.95C22.0503 22.3915 23.4589 22.2516 24.6568 22.7819C25.8823 23.3244 26.6381 24.455 27.0149 25.8847L27.7777 28.7316C28.0068 29.5866 27.4982 30.4675 26.6431 30.6967L20.9617 32.219C20.1066 32.4481 19.2257 31.9395 18.9966 31.0844L18.1221 27.8207L18.0765 27.6317C17.6502 25.6792 18.6955 23.6742 20.5924 22.9509L20.5921 22.95Z" fill="#F28EE6" stroke="white" stroke-width="2"/>
<path d="M17.0912 18.9237C18.1392 19.4283 19.3647 19.557 20.5355 19.2434C21.7265 18.9242 22.7028 18.2251 23.3534 17.271L23.8246 16.5807L24.5872 16.9213C25.697 17.4164 26.9307 17.5298 28.0525 17.2292C28.232 17.1811 28.4059 17.1246 28.5628 17.0621L28.5793 17.0557L28.5948 17.0495C28.7359 16.9988 28.822 16.9667 28.8977 16.9309L28.921 16.9197L28.9447 16.9103C29.0741 16.857 29.1966 16.7932 29.326 16.7181L29.7496 16.454C31.0171 15.621 32.7352 16.2628 33.1296 17.7341L34.0808 21.2837C35.1046 25.1048 32.8347 29.0363 29.0136 30.0602C28.1586 30.2893 27.278 29.7815 27.0488 28.9266L26.286 26.0798C25.9313 24.7561 25.2935 23.9625 24.486 23.5543L24.4779 23.5504L24.4777 23.5495C23.762 23.1802 22.8512 23.0946 21.6779 23.409C21.4071 23.4815 21.1481 23.5623 20.8778 23.6678L20.8686 23.6713C19.29 24.2704 18.4201 25.9696 18.8628 27.6219L19.7374 30.8857C19.9663 31.7407 19.4575 32.6208 18.6026 32.8499C14.7814 33.8737 10.8499 31.6039 9.82602 27.7827L8.88148 24.2577C8.47619 22.7451 9.69452 21.3473 11.2024 21.453C11.5083 21.4713 11.7911 21.4673 12.0639 21.4345L12.0876 21.4322C12.2421 21.4172 12.3262 21.4056 12.379 21.3915L12.4393 21.3753L12.5008 21.3669C12.6569 21.3453 12.8098 21.3135 12.9599 21.2732C14.1056 20.9663 15.1355 20.2337 15.8442 19.2427L16.3332 18.5586L17.0912 18.9237Z" fill="#F28EE6" stroke="white" stroke-width="2"/>
</g>
<defs>
<filter id="filter0_d_325_17363" x="0" y="1.28418" width="39.3267" height="40.8125" filterUnits="userSpaceOnUse" color-interpolation-filters="sRGB">
<feFlood flood-opacity="0" result="BackgroundImageFix"/>
<feColorMatrix in="SourceAlpha" type="matrix" values="0 0 0 0 0 0 0 0 0 0 0 0 0 0 0 0 0 0 127 0" result="hardAlpha"/>
<feOffset dy="4"/>
<feGaussianBlur stdDeviation="2"/>
<feComposite in2="hardAlpha" operator="out"/>
<feColorMatrix type="matrix" values="0 0 0 0 0 0 0 0 0 0 0 0 0 0 0 0 0 0 0.15 0"/>
<feBlend mode="normal" in2="BackgroundImageFix" result="effect1_dropShadow_325_17363"/>
<feBlend mode="normal" in="SourceGraphic" in2="effect1_dropShadow_325_17363" result="shape"/>
</filter>
</defs>
</svg>
