<svg width="39" height="41" viewBox="0 0 39 41" fill="none" xmlns="http://www.w3.org/2000/svg">
<g filter="url(#filter0_d_325_17153)">
<path d="M25.2005 7.33538L25.6666 9.69767C25.9046 10.8605 26.9312 12.1562 28.0077 12.6801L29.3405 13.2728C33.3291 15.0873 33.4936 18.4286 29.676 20.6637L28.0507 21.602C26.9729 22.2553 26.0454 23.8124 25.9877 25.053L25.9648 25.8711C25.7459 31.2294 22.5523 32.454 18.864 28.6396L18.059 27.8351C17.1003 26.8717 15.2692 26.381 13.9572 26.736L12.8578 27.0302C7.71005 28.5163 5.56647 25.8223 8.09263 21.0823L8.48182 20.3623C9.05221 19.2591 9.02751 17.4468 8.42069 16.3422L7.49215 14.6803C5.30354 10.8358 7.11667 8.02445 11.4782 8.44731L12.9287 8.60047C14.0765 8.71175 15.6599 8.0762 16.4474 7.18813L18.0322 5.37538C21.0697 1.94998 24.2925 2.81354 25.2005 7.33538Z" fill="#AEE7FF"/>
<path d="M22.2002 4.16686C23.0034 4.38533 23.8538 5.24557 24.3101 7.11012L24.3964 7.49722L24.8623 9.85637L24.8629 9.8616C25.0136 10.5982 25.3996 11.3284 25.8781 11.9363C26.3571 12.5447 26.9752 13.0898 27.6488 13.4177L27.6612 13.424L27.6749 13.4297L29.0012 14.0187L29.001 14.0196C30.8586 14.8648 31.5746 15.9456 31.6167 16.8487C31.6589 17.7546 31.0436 18.912 29.2617 19.9553L27.6408 20.892L27.6327 20.8958L27.6255 20.9C26.9427 21.3138 26.355 21.9793 25.9325 22.6868C25.5104 23.3936 25.2051 24.2237 25.1682 25.0146L25.1681 25.0226L25.1682 25.0297L25.1452 25.8364L25.1449 25.8373C25.0383 28.4461 24.2182 29.6201 23.4183 29.9303C22.6731 30.2192 21.417 29.9611 19.7854 28.3998L19.4534 28.0692L19.4438 28.0596L18.6394 27.2546L18.6385 27.2544C18.0339 26.6477 17.1974 26.2253 16.3533 25.9991C15.6135 25.8008 14.8032 25.7362 14.0576 25.8733L13.7457 25.9433L12.6456 26.238L12.6303 26.242C10.1252 26.9652 8.76977 26.5444 8.23775 25.8789C7.70234 25.2089 7.58633 23.778 8.81383 21.4726L9.20307 20.7519L9.20673 20.7458L9.21064 20.7387C9.5742 20.0354 9.72478 19.1639 9.71267 18.3407C9.70054 17.5167 9.5243 16.6466 9.13988 15.9468L9.13712 15.942L8.20854 14.2798L8.20483 14.2748L8.02563 13.9437C7.1907 12.3182 7.26092 11.1219 7.71987 10.4061C8.20796 9.64526 9.36771 9.06682 11.3987 9.26366L11.398 9.26247L12.843 9.41611L12.8499 9.41694C13.5909 9.48871 14.4087 9.31994 15.1291 9.03078C15.8509 8.74102 16.5616 8.29594 17.0611 7.7327L17.0655 7.7278L18.6458 5.91995C20.0778 4.30508 21.3441 3.93425 22.2002 4.16686Z" stroke="white" stroke-width="1.64055"/>
</g>
<defs>
<filter id="filter0_d_325_17153" x="3.62396e-05" y="0.00014019" width="39.0007" height="40.6996" filterUnits="userSpaceOnUse" color-interpolation-filters="sRGB">
<feFlood flood-opacity="0" result="BackgroundImageFix"/>
<feColorMatrix in="SourceAlpha" type="matrix" values="0 0 0 0 0 0 0 0 0 0 0 0 0 0 0 0 0 0 127 0" result="hardAlpha"/>
<feOffset dy="3.28111"/>
<feGaussianBlur stdDeviation="3.28111"/>
<feComposite in2="hardAlpha" operator="out"/>
<feColorMatrix type="matrix" values="0 0 0 0 0 0 0 0 0 0 0 0 0 0 0 0 0 0 0.1 0"/>
<feBlend mode="normal" in2="BackgroundImageFix" result="effect1_dropShadow_325_17153"/>
<feBlend mode="normal" in="SourceGraphic" in2="effect1_dropShadow_325_17153" result="shape"/>
</filter>
</defs>
</svg>
