<svg width="50" height="50" viewBox="0 0 50 50" fill="none" xmlns="http://www.w3.org/2000/svg">
<foreignObject x="-21.1944" y="-21.1944" width="91.8426" height="91.8426"><div xmlns="http://www.w3.org/1999/xhtml" style="backdrop-filter:blur(10.6px);clip-path:url(#bgblur_1_152_6990_clip_path);height:100%;width:100%"></div></foreignObject><g data-figma-bg-blur-radius="21.1944">
<g clip-path="url(#clip0_152_6990)">
<rect width="49.4537" height="49.4537" rx="14.1296" fill="#DD7365" fill-opacity="0.05"/>
<g filter="url(#filter1_f_152_6990)">
<circle cx="30.3577" cy="37.5" r="7.14286" fill="#C73434"/>
</g>
<path d="M21.3333 36V28.6667H15.3333C14.597 28.6667 14 29.2636 14 30V34.6667C14 35.403 14.597 36 15.3333 36H21.3333ZM21.3333 36H28.6667M21.3333 36V22.6667C21.3333 21.9303 21.9303 21.3333 22.6667 21.3333H28.6667V36M28.6667 36H35.3333C35.7015 36 36 35.7015 36 35.3333V15.3333C36 14.597 35.403 14 34.6667 14H30C29.2636 14 28.6667 14.597 28.6667 15.3333V36Z" stroke="#C73434" stroke-width="3" stroke-linecap="square" stroke-linejoin="round"/>
</g>
<rect x="1.32465" y="1.32465" width="46.8044" height="46.8044" rx="12.805" stroke="#DD6565" stroke-opacity="0.15" stroke-width="2.64931"/>
</g>
<defs>
<clipPath id="bgblur_1_152_6990_clip_path" transform="translate(21.1944 21.1944)"><rect width="49.4537" height="49.4537" rx="14.1296"/>
</clipPath><filter id="filter1_f_152_6990" x="3.21484" y="10.3572" width="54.2858" height="54.2857" filterUnits="userSpaceOnUse" color-interpolation-filters="sRGB">
<feFlood flood-opacity="0" result="BackgroundImageFix"/>
<feBlend mode="normal" in="SourceGraphic" in2="BackgroundImageFix" result="shape"/>
<feGaussianBlur stdDeviation="10" result="effect1_foregroundBlur_152_6990"/>
</filter>
<clipPath id="clip0_152_6990">
<rect width="49.4537" height="49.4537" rx="14.1296" fill="white"/>
</clipPath>
</defs>
</svg>
