<svg width="34" height="34" viewBox="0 0 34 34" fill="none" xmlns="http://www.w3.org/2000/svg">
<path d="M27.2566 7.90529H26.6899L21.9016 3.11695C21.5191 2.73445 20.8958 2.73445 20.4991 3.11695C20.1166 3.49945 20.1166 4.12279 20.4991 4.51945L23.8849 7.90529H10.1149L13.5008 4.51945C13.8833 4.13695 13.8833 3.51362 13.5008 3.11695C13.1183 2.73445 12.4949 2.73445 12.0983 3.11695L7.32409 7.90529H6.75742C5.48242 7.90529 2.83325 7.90529 2.83325 11.532C2.83325 12.9061 3.11659 13.8128 3.71159 14.4078C4.05159 14.762 4.46242 14.9461 4.90159 15.0453C5.31242 15.1445 5.75159 15.1586 6.17659 15.1586H27.8233C28.2624 15.1586 28.6733 15.1303 29.0699 15.0453C30.2599 14.762 31.1666 13.912 31.1666 11.532C31.1666 7.90529 28.5174 7.90529 27.2566 7.90529Z" fill="#000000"/>
<path d="M26.9874 17H6.8991C6.02077 17 5.35494 17.7792 5.4966 18.6433L6.6866 25.925C7.08327 28.3617 8.14577 31.1667 12.8633 31.1667H20.8108C25.5849 31.1667 26.4349 28.7725 26.9449 26.095L28.3758 18.6858C28.5458 17.8075 27.8799 17 26.9874 17ZM15.0308 26.1375C15.0308 26.69 14.5916 27.1292 14.0533 27.1292C13.5008 27.1292 13.0616 26.69 13.0616 26.1375V21.4625C13.0616 20.9242 13.5008 20.4708 14.0533 20.4708C14.5916 20.4708 15.0308 20.9242 15.0308 21.4625V26.1375ZM21.0941 26.1375C21.0941 26.69 20.6549 27.1292 20.1024 27.1292C19.5641 27.1292 19.1108 26.69 19.1108 26.1375V21.4625C19.1108 20.9242 19.5641 20.4708 20.1024 20.4708C20.6549 20.4708 21.0941 20.9242 21.0941 21.4625V26.1375Z" fill="#000000"/>
</svg>
