<svg width="28" height="28" viewBox="0 0 28 28" fill="none" xmlns="http://www.w3.org/2000/svg">
<g clip-path="url(#clip0_414_17492)">
<path d="M22.4466 6.51015H21.9799L18.0366 2.56682C17.7216 2.25182 17.2083 2.25182 16.8816 2.56682C16.5666 2.88182 16.5666 3.39515 16.8816 3.72182L19.6699 6.51015H8.32992L11.1183 3.72182C11.4333 3.40682 11.4333 2.89348 11.1183 2.56682C10.8033 2.25182 10.2899 2.25182 9.96325 2.56682L6.03159 6.51015H5.56492C4.51492 6.51015 2.33325 6.51015 2.33325 9.49682C2.33325 10.6285 2.56659 11.3751 3.05659 11.8651C3.33659 12.1568 3.67492 12.3085 4.03659 12.3901C4.37492 12.4718 4.73659 12.4835 5.08659 12.4835H22.9133C23.2749 12.4835 23.6133 12.4601 23.9399 12.3901C24.9199 12.1568 25.6666 11.4568 25.6666 9.49682C25.6666 6.51015 23.4849 6.51015 22.4466 6.51015Z" fill="#0070F4"/>
<path d="M22.225 14H5.68168C4.95835 14 4.41002 14.6417 4.52669 15.3533L5.50668 21.35C5.83335 23.3567 6.70835 25.6667 10.5934 25.6667H17.1384C21.07 25.6667 21.77 23.695 22.19 21.49L23.3684 15.3883C23.5084 14.665 22.96 14 22.225 14ZM12.3784 21.525C12.3784 21.98 12.0167 22.3417 11.5734 22.3417C11.1184 22.3417 10.7567 21.98 10.7567 21.525V17.675C10.7567 17.2317 11.1184 16.8583 11.5734 16.8583C12.0167 16.8583 12.3784 17.2317 12.3784 17.675V21.525ZM17.3717 21.525C17.3717 21.98 17.01 22.3417 16.555 22.3417C16.1117 22.3417 15.7384 21.98 15.7384 21.525V17.675C15.7384 17.2317 16.1117 16.8583 16.555 16.8583C17.01 16.8583 17.3717 17.2317 17.3717 17.675V21.525Z" fill="#0070F4"/>
</g>
<defs>
<clipPath id="clip0_414_17492">
<rect width="28" height="28" fill="white"/>
</clipPath>
</defs>
</svg>
