<svg width="28" height="28" viewBox="0 0 28 28" fill="none" xmlns="http://www.w3.org/2000/svg">
<path fill-rule="evenodd" clip-rule="evenodd" d="M11.3669 1.96304C11.8167 1.72668 12.6845 1.42773 14.1719 1.42773C15.6594 1.42773 16.5271 1.72668 16.9781 1.96304C17.32 2.14184 17.5201 2.42682 17.634 2.66485C17.7961 3.00291 18.1509 3.76563 18.461 4.59205C19.0618 4.86647 19.635 5.19785 20.1725 5.58163C21.0442 5.43635 21.8829 5.36371 22.2573 5.3341C22.5199 5.31398 22.8664 5.34527 23.1933 5.55202C23.6235 5.82358 24.3164 6.42538 25.0596 7.7139C25.8038 9.00243 25.9782 9.90316 25.9988 10.4116C26.015 10.7972 25.8686 11.1129 25.7195 11.3308C25.324 11.9087 24.9045 12.4698 24.4622 13.0127C24.5246 13.6695 24.5246 14.3307 24.4622 14.9874C24.9045 15.5303 25.324 16.0914 25.7195 16.6693C25.8686 16.8872 26.015 17.2024 25.9988 17.5885C25.9782 18.097 25.8033 18.9977 25.0601 20.2862C24.3158 21.5748 23.623 22.1766 23.1933 22.4487C22.8669 22.6554 22.5205 22.6862 22.2573 22.666C21.5592 22.6126 20.8637 22.53 20.1725 22.4185C19.635 22.8023 19.0618 23.1337 18.461 23.4081C18.2123 24.0617 17.9364 24.7047 17.634 25.3353C17.5201 25.5733 17.32 25.8577 16.9781 26.0371C16.5271 26.2729 15.6594 26.5724 14.1719 26.5724C12.6845 26.5724 11.8167 26.2735 11.3658 26.0371C11.0238 25.8583 10.8238 25.5733 10.7098 25.3353C10.5477 24.9972 10.1929 24.2345 9.88279 23.4081C9.28198 23.1337 8.70885 22.8023 8.17127 22.4185C7.29959 22.5638 6.46032 22.6364 6.08594 22.666C5.82332 22.6862 5.47688 22.6549 5.15056 22.4481C4.72031 22.1766 4.02743 21.5748 3.28427 20.2862C2.53998 18.9977 2.36509 18.097 2.34441 17.5885C2.32877 17.2029 2.47517 16.8872 2.6238 16.6693C3.01927 16.0914 3.43872 15.5303 3.88103 14.9874C3.8187 14.3307 3.8187 13.6695 3.88103 13.0127C3.43872 12.4698 3.01927 11.9087 2.6238 11.3308C2.47517 11.1129 2.32877 10.7978 2.34441 10.4116C2.36565 9.90316 2.53998 9.00243 3.28371 7.7139C4.02743 6.42538 4.72086 5.82358 5.15056 5.55146C5.47688 5.34472 5.82332 5.31398 6.0865 5.3341C6.46088 5.36315 7.29903 5.43691 8.17071 5.58163C8.70847 5.19782 9.28178 4.86644 9.88279 4.59205C10.1315 3.93843 10.4074 3.29547 10.7098 2.66485C10.8238 2.42682 11.0238 2.1424 11.3658 1.96304H11.3669ZM18.6421 14.0001C18.6421 15.1856 18.1711 16.3226 17.3328 17.161C16.4945 17.9993 15.3575 18.4702 14.1719 18.4702C12.9863 18.4702 11.8493 17.9993 11.011 17.161C10.1727 16.3226 9.70174 15.1856 9.70174 14.0001C9.70174 12.8145 10.1727 11.6775 11.011 10.8392C11.8493 10.0009 12.9863 9.52991 14.1719 9.52991C15.3575 9.52991 16.4945 10.0009 17.3328 10.8392C18.1711 11.6775 18.6421 12.8145 18.6421 14.0001Z" fill="#0070F4"/>
</svg>
