<svg width="27" height="28" viewBox="0 0 27 28" fill="none" xmlns="http://www.w3.org/2000/svg">
<path fill-rule="evenodd" clip-rule="evenodd" d="M10.0483 0.596089C10.5492 0.332889 11.5155 0 13.1719 0C14.8282 0 15.7945 0.332889 16.2967 0.596089C16.6775 0.7952 16.9002 1.11253 17.0271 1.3776C17.2076 1.75404 17.6027 2.60338 17.948 3.52364C18.6171 3.82923 19.2553 4.19824 19.8539 4.6256C20.8246 4.46382 21.7585 4.38293 22.1754 4.34996C22.4679 4.32756 22.8536 4.3624 23.2176 4.59262C23.6967 4.89502 24.4683 5.56516 25.2959 7C26.1247 8.43484 26.3188 9.43787 26.3418 10.0041C26.3599 10.4334 26.1968 10.785 26.0307 11.0276C25.5903 11.6712 25.1232 12.296 24.6307 12.9005C24.7001 13.6319 24.7001 14.3681 24.6307 15.0995C25.1232 15.704 25.5903 16.3288 26.0307 16.9724C26.1968 17.215 26.3599 17.566 26.3418 17.9959C26.3188 18.5621 26.124 19.5652 25.2965 21C24.4677 22.4348 23.6961 23.105 23.2176 23.408C22.8543 23.6382 22.4685 23.6724 22.1754 23.65C21.3981 23.5905 20.6236 23.4986 19.8539 23.3744C19.2553 23.8018 18.6171 24.1708 17.948 24.4764C17.6711 25.2042 17.3638 25.9202 17.0271 26.6224C16.9002 26.8875 16.6775 27.2042 16.2967 27.4039C15.7945 27.6665 14.8282 28 13.1719 28C11.5155 28 10.5492 27.6671 10.0471 27.4039C9.66626 27.2048 9.44351 26.8875 9.31657 26.6224C9.13613 26.246 8.74102 25.3966 8.39568 24.4764C7.72665 24.1708 7.08844 23.8018 6.48982 23.3744C5.51915 23.5362 4.58457 23.6171 4.16768 23.65C3.87524 23.6724 3.48946 23.6376 3.12608 23.4074C2.64697 23.105 1.87542 22.4348 1.04786 21C0.21906 19.5652 0.0243046 18.5621 0.00128238 17.9959C-0.0161398 17.5666 0.146882 17.215 0.312393 16.9724C0.752777 16.3288 1.21985 15.704 1.71239 15.0995C1.64298 14.3681 1.64298 13.6319 1.71239 12.9005C1.21985 12.296 0.752777 11.6712 0.312393 11.0276C0.146882 10.785 -0.0161398 10.434 0.00128238 10.0041C0.0249268 9.43787 0.21906 8.43484 1.04724 7C1.87542 5.56516 2.64759 4.89502 3.12608 4.592C3.48946 4.36178 3.87524 4.32756 4.1683 4.34996C4.58519 4.38231 5.51853 4.46444 6.48919 4.6256C7.08802 4.1982 7.72643 3.8292 8.39568 3.52364C8.67267 2.7958 8.9799 2.07983 9.31657 1.3776C9.44351 1.11253 9.66626 0.795822 10.0471 0.596089H10.0483ZM18.1496 14C18.1496 15.3202 17.6252 16.5863 16.6917 17.5198C15.7582 18.4533 14.4921 18.9778 13.1719 18.9778C11.8517 18.9778 10.5856 18.4533 9.65204 17.5198C8.71852 16.5863 8.19408 15.3202 8.19408 14C8.19408 12.6798 8.71852 11.4137 9.65204 10.4802C10.5856 9.54667 11.8517 9.02222 13.1719 9.02222C14.4921 9.02222 15.7582 9.54667 16.6917 10.4802C17.6252 11.4137 18.1496 12.6798 18.1496 14Z" fill="#000000"/>
</svg>
