<svg width="28" height="28" viewBox="0 0 28 28" fill="none" xmlns="http://www.w3.org/2000/svg">
<path d="M16.4248 2.9173C15.8624 3.15164 15.4968 3.69531 15.4968 4.3046V8.05405H10.2476C5.69199 8.05405 1.99878 11.7473 1.99878 16.3028C1.99878 21.613 5.81853 23.9845 6.69497 24.4626C6.81214 24.5282 6.94337 24.5516 7.0746 24.5516C7.58546 24.5516 7.9979 24.1345 7.9979 23.6283C7.9979 23.2768 7.79637 22.9534 7.53859 22.7144C7.09803 22.302 6.49812 21.4771 6.49812 20.057C6.49812 17.573 8.51345 15.5576 10.9975 15.5576H15.4968V19.3071C15.4968 19.9117 15.8624 20.46 16.4248 20.6944C16.9872 20.9287 17.6293 20.7975 18.0605 20.371L25.5594 12.8721C26.1452 12.2862 26.1452 11.3348 25.5594 10.749L18.0605 3.25007C17.6293 2.81888 16.9872 2.69233 16.4248 2.92668V2.9173Z" fill="#0070F4"/>
</svg>
