<svg width="34" height="34" viewBox="0 0 34 34" fill="none" xmlns="http://www.w3.org/2000/svg">
<path d="M16.9982 27.9793H13.2016C11.5582 27.9793 10.1274 26.9877 9.56075 25.4577C8.97991 23.9277 9.40491 22.2418 10.6374 21.151L21.9566 11.2485C22.6366 10.6535 22.6507 9.846 22.4524 9.2935C22.2399 8.741 21.7016 8.146 20.7949 8.146H16.9982C16.4174 8.146 15.9357 7.66433 15.9357 7.0835C15.9357 6.50266 16.4174 6.021 16.9982 6.021H20.7949C22.4382 6.021 23.8691 7.01266 24.4357 8.54266C25.0166 10.0727 24.5916 11.7585 23.3591 12.8493L12.0399 22.7518C11.3599 23.3468 11.3457 24.1543 11.5441 24.7068C11.7566 25.2593 12.2949 25.8543 13.2016 25.8543H16.9982C17.5791 25.8543 18.0607 26.336 18.0607 26.9168C18.0607 27.4977 17.5791 27.9793 16.9982 27.9793Z" fill="#000000"/>
<path d="M28.3316 21.25H24.0816C22.5233 21.25 21.2483 22.525 21.2483 24.0833V28.3333C21.2483 29.8917 22.5233 31.1667 24.0816 31.1667H28.3316C29.89 31.1667 31.165 29.8917 31.165 28.3333V24.0833C31.165 22.525 29.89 21.25 28.3316 21.25ZM26.2208 27.625C25.4416 27.625 24.8041 26.9875 24.8041 26.2083C24.8041 25.4292 25.4275 24.7917 26.2208 24.7917H26.235C27.0141 24.7917 27.6516 25.4292 27.6516 26.2083C27.6516 26.9875 27.0141 27.625 26.2208 27.625Z" fill="#000000"/>
<path d="M7.7474 2.8335C5.01323 2.8335 2.78906 5.05766 2.78906 7.79183C2.78906 10.526 5.01323 12.7502 7.7474 12.7502C10.4816 12.7502 12.7057 10.526 12.7057 7.79183C12.7057 5.05766 10.4957 2.8335 7.7474 2.8335ZM7.80406 9.2085C7.0249 9.2085 6.3874 8.571 6.3874 7.79183C6.3874 7.01266 7.01073 6.37516 7.80406 6.37516H7.81823C8.5974 6.37516 9.2349 7.01266 9.2349 7.79183C9.2349 8.571 8.5974 9.2085 7.80406 9.2085Z" fill="#000000"/>
</svg>
