<svg width="28" height="28" viewBox="0 0 28 28" fill="none" xmlns="http://www.w3.org/2000/svg">
<g clip-path="url(#clip0_414_17494)">
<path d="M13.9983 23.6875H10.6483C9.19834 23.6875 7.93584 22.8125 7.43584 21.4625C6.92334 20.1125 7.29834 18.625 8.38584 17.6625L18.3733 8.925C18.9733 8.4 18.9858 7.6875 18.8108 7.2C18.6233 6.7125 18.1483 6.1875 17.3483 6.1875H13.9983C13.4858 6.1875 13.0608 5.7625 13.0608 5.25C13.0608 4.7375 13.4858 4.3125 13.9983 4.3125H17.3483C18.7983 4.3125 20.0608 5.1875 20.5608 6.5375C21.0733 7.8875 20.6983 9.375 19.6108 10.3375L9.62334 19.075C9.02334 19.6 9.01084 20.3125 9.18584 20.8C9.37334 21.2875 9.84834 21.8125 10.6483 21.8125H13.9983C14.5108 21.8125 14.9358 22.2375 14.9358 22.75C14.9358 23.2625 14.5108 23.6875 13.9983 23.6875Z" fill="#0070F4"/>
<path d="M23.9985 17.75H20.2485C18.8735 17.75 17.7485 18.875 17.7485 20.25V24C17.7485 25.375 18.8735 26.5 20.2485 26.5H23.9985C25.3735 26.5 26.4985 25.375 26.4985 24V20.25C26.4985 18.875 25.3735 17.75 23.9985 17.75ZM22.136 23.375C21.4485 23.375 20.886 22.8125 20.886 22.125C20.886 21.4375 21.436 20.875 22.136 20.875H22.1485C22.836 20.875 23.3985 21.4375 23.3985 22.125C23.3985 22.8125 22.836 23.375 22.136 23.375Z" fill="#0070F4"/>
<path d="M5.83594 1.5C3.42344 1.5 1.46094 3.4625 1.46094 5.875C1.46094 8.2875 3.42344 10.25 5.83594 10.25C8.24844 10.25 10.2109 8.2875 10.2109 5.875C10.2109 3.4625 8.26094 1.5 5.83594 1.5ZM5.88594 7.125C5.19844 7.125 4.63594 6.5625 4.63594 5.875C4.63594 5.1875 5.18594 4.625 5.88594 4.625H5.89844C6.58594 4.625 7.14844 5.1875 7.14844 5.875C7.14844 6.5625 6.58594 7.125 5.88594 7.125Z" fill="#0070F4"/>
</g>
<defs>
<clipPath id="clip0_414_17494">
<rect width="28" height="28" fill="white"/>
</clipPath>
</defs>
</svg>
