<svg width="28" height="28" viewBox="0 0 28 28" fill="none" xmlns="http://www.w3.org/2000/svg">
<path d="M5.08855 12.7109C5.71186 8.35156 9.4658 5 13.9977 5C16.4816 5 18.7311 6.00781 20.3621 7.63437L20.3902 7.6625L20.7464 8H18.5015C17.672 8 17.0018 8.67031 17.0018 9.5C17.0018 10.3297 17.672 11 18.5015 11H24.5003C25.3298 11 26 10.3297 26 9.5V3.5C26 2.67031 25.3298 2 24.5003 2C23.6708 2 23.0006 2.67031 23.0006 3.5V6.00312L22.471 5.50156C20.3011 3.34062 17.3017 2 13.9977 2C7.95204 2 2.95147 6.47188 2.12195 12.2891C2.00479 13.1094 2.57186 13.8688 3.39201 13.9859C4.21216 14.1031 4.97138 13.5312 5.08855 12.7156V12.7109ZM25.8735 15.7109C25.9906 14.8906 25.4189 14.1312 24.6034 14.0141C23.7879 13.8969 23.024 14.4688 22.9069 15.2844C22.2836 19.6437 18.5296 22.9953 13.9977 22.9953C11.5138 22.9953 9.26428 21.9875 7.63335 20.3609L7.60523 20.3328L7.24905 19.9953H9.49392C10.3234 19.9953 10.9936 19.325 10.9936 18.4953C10.9936 17.6656 10.3234 16.9953 9.49392 16.9953L3.4998 17C3.10144 17 2.71715 17.1594 2.43595 17.4453C2.15476 17.7312 1.99541 18.1109 2.0001 18.5141L2.04697 24.4672C2.05165 25.2969 2.7312 25.9625 3.56073 25.9531C4.39025 25.9438 5.05574 25.2688 5.04637 24.4391L5.02762 22.025L5.52908 22.4984C7.69896 24.6594 10.6937 26 13.9977 26C20.0434 26 25.0439 21.5281 25.8735 15.7109Z" fill="#0070F4"/>
</svg>
