<svg width="26" height="26" viewBox="0 0 26 26" fill="none" xmlns="http://www.w3.org/2000/svg">
<path d="M3.34593 11.6035C4.02118 6.88086 8.08795 3.25 12.9975 3.25C15.6884 3.25 18.1254 4.3418 19.8922 6.10391L19.9227 6.13438L20.3086 6.5H17.8766C16.978 6.5 16.2519 7.22617 16.2519 8.125C16.2519 9.02383 16.978 9.75 17.8766 9.75H24.3753C25.274 9.75 26 9.02383 26 8.125V1.625C26 0.726172 25.274 0 24.3753 0C23.4767 0 22.7506 0.726172 22.7506 1.625V4.33672L22.1769 3.79336C19.8262 1.45234 16.5769 0 12.9975 0C6.44804 0 1.03076 4.84453 0.132114 11.1465C0.00518597 12.0352 0.619516 12.8578 1.50801 12.9848C2.39651 13.1117 3.219 12.4922 3.34593 11.6086V11.6035ZM25.8629 14.8535C25.9898 13.9648 25.3704 13.1422 24.487 13.0152C23.6036 12.8883 22.776 13.5078 22.6491 14.3914C21.9739 19.1141 17.9071 22.7449 12.9975 22.7449C10.3066 22.7449 7.86963 21.6531 6.1028 19.891L6.07234 19.8605L5.68647 19.4949H8.11841C9.01706 19.4949 9.74309 18.7687 9.74309 17.8699C9.74309 16.9711 9.01706 16.2449 8.11841 16.2449L1.62478 16.25C1.19323 16.25 0.776907 16.4227 0.472281 16.7324C0.167654 17.0422 -0.00496818 17.4535 0.000108929 17.8902L0.0508801 24.3395C0.0559572 25.2383 0.792139 25.9594 1.69079 25.9492C2.58944 25.9391 3.31039 25.2078 3.30023 24.309L3.27992 21.6938L3.82317 22.2066C6.17388 24.5477 9.41815 26 12.9975 26C19.547 26 24.9643 21.1555 25.8629 14.8535Z" fill="#000000"/>
</svg>
