<svg width="28" height="26" viewBox="0 0 28 26" fill="none" xmlns="http://www.w3.org/2000/svg">
<path d="M16.8288 0.124537C16.1727 0.397909 15.7463 1.03213 15.7463 1.7429V6.11687H9.62272C4.30835 6.11687 0 10.4252 0 15.7396C0 21.9342 4.45597 24.7007 5.47839 25.2584C5.61507 25.335 5.76816 25.3623 5.92125 25.3623C6.5172 25.3623 6.99834 24.8757 6.99834 24.2852C6.99834 23.8752 6.76324 23.4979 6.46253 23.2191C5.94859 22.7379 5.24875 21.7757 5.24875 20.119C5.24875 17.2213 7.59976 14.8703 10.4975 14.8703H15.7463V19.2442C15.7463 19.9495 16.1727 20.5892 16.8288 20.8626C17.4849 21.136 18.234 20.9829 18.737 20.4853L27.4849 11.7374C28.1683 11.054 28.1683 9.94408 27.4849 9.26065L18.737 0.512726C18.234 0.00971999 17.4849 -0.137901 16.8288 0.135471V0.124537Z" fill="#000000"/>
</svg>
