<svg width="28" height="28" viewBox="0 0 28 28" fill="none" xmlns="http://www.w3.org/2000/svg">
<path d="M17.3633 4.82142L18.321 6.77102C18.7998 7.72872 19.9969 8.61801 21.0572 8.82323L22.357 9.02845C26.2562 9.67831 27.1797 12.5514 24.375 15.3903L23.1779 16.5874C22.3912 17.4083 21.9465 18.9817 22.186 20.0762L22.357 20.7944C23.4173 25.5145 20.9204 27.3273 16.816 24.8647L15.9267 24.3516C14.8664 23.7359 13.1562 23.7359 12.0959 24.3516L11.2067 24.8647C7.06803 27.3615 4.57117 25.5145 5.66568 20.7944L5.83671 20.0762C6.07613 18.9817 5.63148 17.4083 4.8448 16.5874L3.64768 15.3561C0.842998 12.5172 1.76649 9.64411 5.66568 8.99424L6.96542 8.78902C7.99152 8.61801 9.22285 7.69451 9.7017 6.73682L10.6594 4.78722C12.5064 1.09324 15.5163 1.09324 17.3633 4.82142Z" fill="#0070F4"/>
</svg>
