<svg width="29" height="28" viewBox="0 0 29 28" fill="none" xmlns="http://www.w3.org/2000/svg">
<path d="M17.9289 3.27292L19.0481 5.55145C19.6078 6.67073 21.0069 7.71007 22.2461 7.94991L23.7651 8.18976C28.3222 8.94927 29.4015 12.3071 26.1236 15.625L24.7245 17.0241C23.8051 17.9835 23.2854 19.8223 23.5652 21.1015L23.7651 21.9409C25.0043 27.4574 22.0862 29.576 17.2893 26.6979L16.2499 26.0983C15.0107 25.3787 13.012 25.3787 11.7728 26.0983L10.7335 26.6979C5.89658 29.616 2.97845 27.4574 4.25763 21.9409L4.4575 21.1015C4.73733 19.8223 4.21766 17.9835 3.29825 17.0241L1.89915 15.585C-1.37875 12.2671 -0.299446 8.9093 4.25763 8.14979L5.77666 7.90994C6.97589 7.71007 8.41496 6.63076 8.9746 5.51148L10.0939 3.23294C12.2525 -1.08429 15.7702 -1.08429 17.9289 3.27292Z" fill="#000000"/>
</svg>
