<svg width="28" height="28" viewBox="0 0 28 28" fill="none" xmlns="http://www.w3.org/2000/svg">
<path d="M24.6015 5.39L16.2108 0.588C14.8406 -0.196 13.1455 -0.196 11.7611 0.588L3.38451 5.39C2.0143 6.174 1.16675 7.63 1.16675 9.212V18.788C1.16675 20.356 2.0143 21.812 3.38451 22.61L11.7753 27.412C13.1455 28.196 14.8406 28.196 16.2249 27.412L24.6157 22.61C25.9859 21.826 26.8334 20.37 26.8334 18.788V9.212C26.8193 7.63 25.9717 6.188 24.6015 5.39ZM13.993 7.476C15.8153 7.476 17.2843 8.932 17.2843 10.738C17.2843 12.544 15.8153 14 13.993 14C12.1708 14 10.7017 12.544 10.7017 10.738C10.7017 8.946 12.1708 7.476 13.993 7.476ZM17.7787 20.524H10.2073C9.0631 20.524 8.39918 19.264 9.03485 18.326C9.9954 16.912 11.86 15.96 13.993 15.96C16.126 15.96 17.9906 16.912 18.9512 18.326C19.5869 19.25 18.9088 20.524 17.7787 20.524Z" fill="#0070F4"/>
</svg>
