<svg width="34" height="34" viewBox="0 0 34 34" fill="none" xmlns="http://www.w3.org/2000/svg">
<path d="M27.6392 8.28717L19.2242 3.42801C17.8501 2.63467 16.1501 2.63467 14.7617 3.42801L6.36088 8.28717C4.98672 9.08051 4.13672 10.5538 4.13672 12.1547V21.8447C4.13672 23.4313 4.98672 24.9047 6.36088 25.7122L14.7759 30.5713C16.1501 31.3647 17.8501 31.3647 19.2384 30.5713L27.6534 25.7122C29.0276 24.9188 29.8776 23.4455 29.8776 21.8447V12.1547C29.8634 10.5538 29.0134 9.09467 27.6392 8.28717ZM17.0001 10.398C18.8276 10.398 20.3009 11.8713 20.3009 13.6988C20.3009 15.5263 18.8276 16.9997 17.0001 16.9997C15.1726 16.9997 13.6992 15.5263 13.6992 13.6988C13.6992 11.8855 15.1726 10.398 17.0001 10.398ZM20.7967 23.6013H13.2034C12.0559 23.6013 11.3901 22.3263 12.0276 21.3772C12.9909 19.9463 14.8609 18.983 17.0001 18.983C19.1392 18.983 21.0092 19.9463 21.9726 21.3772C22.6101 22.3122 21.9301 23.6013 20.7967 23.6013Z" fill="#000000"/>
</svg>
