<svg width="24" height="24" viewBox="0 0 24 24" fill="none" xmlns="http://www.w3.org/2000/svg">
<path d="M20.2102 7.81994L12.5102 12.2799C12.2002 12.4599 11.8102 12.4599 11.4902 12.2799L3.79021 7.81994C3.24021 7.49994 3.10021 6.74994 3.52021 6.27994C3.81021 5.94994 4.14021 5.67994 4.49021 5.48994L9.91021 2.48994C11.0702 1.83994 12.9502 1.83994 14.1102 2.48994L19.5302 5.48994C19.8802 5.67994 20.2102 5.95994 20.5002 6.27994C20.9002 6.74994 20.7602 7.49994 20.2102 7.81994Z" fill="url(#paint0_linear_103_6373)"/>
<path d="M11.43 14.14V20.96C11.43 21.72 10.66 22.22 9.97998 21.89C7.91998 20.88 4.44998 18.99 4.44998 18.99C3.22998 18.3 2.22998 16.56 2.22998 15.13V9.97C2.22998 9.18 3.05998 8.68 3.73998 9.07L10.93 13.24C11.23 13.43 11.43 13.77 11.43 14.14Z" fill="url(#paint1_linear_103_6373)"/>
<path d="M12.5698 14.14V20.96C12.5698 21.72 13.3398 22.22 14.0198 21.89C16.0798 20.88 19.5498 18.99 19.5498 18.99C20.7698 18.3 21.7698 16.56 21.7698 15.13V9.97C21.7698 9.18 20.9398 8.68 20.2598 9.07L13.0698 13.24C12.7698 13.43 12.5698 13.77 12.5698 14.14Z" fill="url(#paint2_linear_103_6373)"/>
<defs>
<linearGradient id="paint0_linear_103_6373" x1="12.0025" y1="2.00244" x2="12.0025" y2="12.4149" gradientUnits="userSpaceOnUse">
<stop stop-color="#0070F4"/>
<stop offset="1" stop-color="#307FE3"/>
</linearGradient>
<linearGradient id="paint1_linear_103_6373" x1="6.82998" y1="8.93469" x2="6.82998" y2="21.9934" gradientUnits="userSpaceOnUse">
<stop stop-color="#0070F4"/>
<stop offset="1" stop-color="#307FE3"/>
</linearGradient>
<linearGradient id="paint2_linear_103_6373" x1="17.1698" y1="8.93469" x2="17.1698" y2="21.9934" gradientUnits="userSpaceOnUse">
<stop stop-color="#0070F4"/>
<stop offset="1" stop-color="#307FE3"/>
</linearGradient>
</defs>
</svg>
