<svg width="41" height="41" viewBox="0 0 41 41" fill="none" xmlns="http://www.w3.org/2000/svg">
<g clip-path="url(#clip0_152_7088)">
<g filter="url(#filter0_ii_152_7088)">
<rect y="10.4017" width="32" height="32" rx="12.8" transform="rotate(-18.9688 0 10.4017)" fill="url(#paint0_linear_152_7088)"/>
</g>
<g filter="url(#filter1_i_152_7088)">
<rect x="1.3551" y="11.0636" width="29.8667" height="29.8667" rx="12.8" transform="rotate(-18.9688 1.3551 11.0636)" fill="url(#paint1_linear_152_7088)"/>
</g>
<g filter="url(#filter2_d_152_7088)">
<g filter="url(#filter3_i_152_7088)">
<rect x="8.13269" y="14.3734" width="8.88889" height="8.88889" rx="2.22222" transform="rotate(-18.9688 8.13269 14.3734)" fill="url(#paint2_linear_152_7088)"/>
</g>
<rect x="8.27388" y="14.4423" width="8.66667" height="8.66667" rx="2.11111" transform="rotate(-18.9688 8.27388 14.4423)" stroke="url(#paint3_linear_152_7088)" stroke-width="0.222222"/>
<g filter="url(#filter4_i_152_7088)">
<rect x="17.9679" y="10.993" width="8.88889" height="8.88889" rx="2.22222" transform="rotate(-18.9688 17.9679 10.993)" fill="url(#paint4_linear_152_7088)"/>
</g>
<rect x="18.1091" y="11.062" width="8.66667" height="8.66667" rx="2.11111" transform="rotate(-18.9688 18.1091 11.062)" stroke="url(#paint5_linear_152_7088)" stroke-width="0.222222"/>
<g filter="url(#filter5_i_152_7088)">
<rect x="11.5133" y="24.2086" width="8.88889" height="8.88889" rx="2.22222" transform="rotate(-18.9688 11.5133 24.2086)" fill="url(#paint6_linear_152_7088)"/>
</g>
<rect x="11.6545" y="24.2775" width="8.66667" height="8.66667" rx="2.11111" transform="rotate(-18.9688 11.6545 24.2775)" stroke="url(#paint7_linear_152_7088)" stroke-width="0.222222"/>
<g filter="url(#filter6_d_152_7088)">
<g opacity="0.8">
<g filter="url(#filter7_i_152_7088)">
<path d="M26.3911 23.2913C26.1748 23.7457 26.0666 23.9729 25.9802 24.092C25.2959 25.0348 23.8658 24.9537 23.2925 23.9397C23.22 23.8115 23.1368 23.5694 22.9703 23.0852C22.892 22.8571 22.8528 22.7431 22.8323 22.6447C22.6832 21.9295 23.0374 21.2041 23.6931 20.882C23.7834 20.8377 23.8974 20.7985 24.1254 20.7201C24.6097 20.5537 24.8518 20.4705 24.9974 20.4488C26.1496 20.2775 27.0928 21.3556 26.77 22.4749C26.7292 22.6163 26.6165 22.8413 26.3911 23.2913Z" fill="url(#paint8_linear_152_7088)"/>
</g>
<path d="M25.8906 24.0267C25.2539 24.904 23.9228 24.8284 23.3893 23.8848C23.3234 23.7681 23.2439 23.5399 23.0752 23.0489C22.9958 22.8178 22.9596 22.7119 22.9409 22.6221C22.8021 21.9566 23.132 21.2813 23.7422 20.9816C23.8245 20.9411 23.9302 20.9045 24.1613 20.8251C24.6523 20.6563 24.8811 20.5787 25.0137 20.559C26.0859 20.3996 26.9638 21.4029 26.6634 22.4445C26.6262 22.5732 26.5202 22.7854 26.2919 23.2413L26.2907 23.2438C26.0715 23.7041 25.9693 23.9182 25.8906 24.0267Z" stroke="url(#paint9_linear_152_7088)" stroke-width="0.222223"/>
</g>
<g opacity="0.8">
<g filter="url(#filter8_i_152_7088)">
<path d="M27.489 23.8275C27.7053 23.3731 27.8135 23.1459 27.9 23.0268C28.5842 22.084 30.0144 22.1651 30.5877 23.1792C30.6601 23.3073 30.7433 23.5494 30.9098 24.0337C30.9882 24.2617 31.0274 24.3757 31.0479 24.4742C31.197 25.1893 30.8427 25.9147 30.187 26.2368C30.0967 26.2811 29.9827 26.3203 29.7547 26.3987C29.2704 26.5651 29.0283 26.6484 28.8827 26.67C27.7305 26.8413 26.7873 25.7632 27.1101 24.644C27.1509 24.5025 27.2636 24.2775 27.489 23.8275Z" fill="url(#paint10_linear_152_7088)"/>
</g>
<path d="M27.9895 23.0921C28.6262 22.2149 29.9573 22.2904 30.4908 23.2341C30.5567 23.3507 30.6362 23.579 30.8049 24.0699C30.8844 24.301 30.9205 24.4069 30.9392 24.4967C31.078 25.1622 30.7482 25.8375 30.138 26.1373C30.0556 26.1777 29.9499 26.2143 29.7188 26.2937C29.2279 26.4625 28.999 26.5401 28.8664 26.5598C27.7942 26.7192 26.9163 25.7159 27.2167 24.6744C27.2539 24.5456 27.3599 24.3334 27.5882 23.8775L27.5894 23.875C27.8086 23.4147 27.9108 23.2007 27.9895 23.0921Z" stroke="url(#paint11_linear_152_7088)" stroke-width="0.222223"/>
</g>
<g filter="url(#filter9_i_152_7088)">
<path d="M26.6673 24.1183C27.973 24.7399 28.6258 25.0507 28.8691 25.4053C29.2811 26.0059 29.2356 26.8089 28.7584 27.359C28.4766 27.6838 27.7876 27.9206 26.4096 28.3943C25.7716 28.6136 25.4526 28.7232 25.167 28.7169C24.6989 28.7065 24.2588 28.4916 23.9628 28.1287C23.7823 27.9074 23.6726 27.5884 23.4533 26.9504C22.9797 25.5724 22.7429 24.8834 22.8258 24.4615C22.9663 23.7469 23.5716 23.2173 24.2985 23.173C24.7278 23.1469 25.3743 23.4707 26.6673 24.1183Z" fill="url(#paint12_linear_152_7088)"/>
</g>
<path d="M28.7774 25.4686C29.1606 26.0274 29.1182 26.7746 28.6742 27.2864C28.5515 27.4277 28.3303 27.5601 27.9522 27.7184C27.5766 27.8757 27.0637 28.0517 26.3732 28.289C26.0532 28.399 25.8179 28.4803 25.6269 28.5332C25.4365 28.5859 25.2969 28.6085 25.1696 28.6057C24.7339 28.596 24.3244 28.396 24.049 28.0584C23.9685 27.9597 23.9005 27.8356 23.825 27.6531C23.7493 27.4699 23.6687 27.2344 23.5587 26.9144C23.3214 26.2239 23.1448 25.7112 23.038 25.3183C22.9304 24.9227 22.8988 24.6669 22.9347 24.4833C23.0654 23.8184 23.6287 23.3256 24.305 23.2843C24.4918 23.2729 24.7404 23.3371 25.1158 23.4951C25.4885 23.6519 25.9699 23.8934 26.6178 24.2179L26.6191 24.2185C27.2734 24.53 27.7598 24.7613 28.1127 24.9588C28.468 25.1577 28.6715 25.3143 28.7774 25.4686Z" stroke="url(#paint13_linear_152_7088)" stroke-width="0.222223"/>
<g filter="url(#filter10_i_152_7088)">
<path d="M27.2134 23.0001C25.9077 22.3784 25.2549 22.0676 25.0116 21.713C24.5996 21.1125 24.6451 20.3095 25.1224 19.7594C25.4042 19.4345 26.0932 19.1977 27.4711 18.7241C28.1092 18.5048 28.4282 18.3951 28.7137 18.4014C29.1818 18.4118 29.6219 18.6268 29.9179 18.9896C30.0985 19.2109 30.2081 19.5299 30.4274 20.1679C30.9011 21.5459 31.1379 22.2349 31.0549 22.6569C30.9145 23.3715 30.3091 23.901 29.5822 23.9453C29.153 23.9715 28.5065 23.6477 27.2134 23.0001Z" fill="url(#paint14_linear_152_7088)"/>
</g>
<path d="M25.1033 21.6497C24.7201 21.0909 24.7625 20.3437 25.2065 19.8319C25.3292 19.6906 25.5504 19.5583 25.9286 19.3999C26.3041 19.2426 26.817 19.0666 27.5075 18.8293C27.8275 18.7193 28.0628 18.6381 28.2539 18.5852C28.4442 18.5325 28.5839 18.5098 28.7112 18.5126C29.1468 18.5223 29.5563 18.7223 29.8318 19.06C29.9123 19.1586 29.9803 19.2827 30.0557 19.4652C30.1315 19.6484 30.2121 19.8839 30.322 20.2039C30.5594 20.8944 30.7359 21.4072 30.8428 21.8C30.9504 22.1956 30.982 22.4515 30.946 22.6351C30.8153 23.3 30.2521 23.7927 29.5758 23.8341C29.3889 23.8454 29.1403 23.7812 28.765 23.6233C28.3923 23.4664 27.9108 23.2249 27.2629 22.9004L27.2616 22.8998C26.6073 22.5883 26.1209 22.3571 25.768 22.1596C25.4127 21.9606 25.2092 21.8041 25.1033 21.6497Z" stroke="url(#paint15_linear_152_7088)" stroke-width="0.222223"/>
</g>
</g>
</g>
<defs>
<filter id="filter0_ii_152_7088" x="2.93188" y="3.46517" width="34.5335" height="34.0003" filterUnits="userSpaceOnUse" color-interpolation-filters="sRGB">
<feFlood flood-opacity="0" result="BackgroundImageFix"/>
<feBlend mode="normal" in="SourceGraphic" in2="BackgroundImageFix" result="shape"/>
<feColorMatrix in="SourceAlpha" type="matrix" values="0 0 0 0 0 0 0 0 0 0 0 0 0 0 0 0 0 0 127 0" result="hardAlpha"/>
<feOffset dx="0.266667" dy="0.266667"/>
<feGaussianBlur stdDeviation="1.06667"/>
<feComposite in2="hardAlpha" operator="arithmetic" k2="-1" k3="1"/>
<feColorMatrix type="matrix" values="0 0 0 0 1 0 0 0 0 0.740417 0 0 0 0 0.629167 0 0 0 1 0"/>
<feBlend mode="normal" in2="shape" result="effect1_innerShadow_152_7088"/>
<feColorMatrix in="SourceAlpha" type="matrix" values="0 0 0 0 0 0 0 0 0 0 0 0 0 0 0 0 0 0 127 0" result="hardAlpha"/>
<feOffset dx="-0.533333"/>
<feGaussianBlur stdDeviation="1.06667"/>
<feComposite in2="hardAlpha" operator="arithmetic" k2="-1" k3="1"/>
<feColorMatrix type="matrix" values="0 0 0 0 0.952941 0 0 0 0 0.596078 0 0 0 0 0.443137 0 0 0 0.25 0"/>
<feBlend mode="normal" in2="effect1_innerShadow_152_7088" result="effect2_innerShadow_152_7088"/>
</filter>
<filter id="filter1_i_152_7088" x="4.8197" y="4.81991" width="32.6238" height="32.6239" filterUnits="userSpaceOnUse" color-interpolation-filters="sRGB">
<feFlood flood-opacity="0" result="BackgroundImageFix"/>
<feBlend mode="normal" in="SourceGraphic" in2="BackgroundImageFix" result="shape"/>
<feColorMatrix in="SourceAlpha" type="matrix" values="0 0 0 0 0 0 0 0 0 0 0 0 0 0 0 0 0 0 127 0" result="hardAlpha"/>
<feOffset dx="1.6" dy="1.6"/>
<feGaussianBlur stdDeviation="1.06667"/>
<feComposite in2="hardAlpha" operator="arithmetic" k2="-1" k3="1"/>
<feColorMatrix type="matrix" values="0 0 0 0 1 0 0 0 0 1 0 0 0 0 1 0 0 0 0.08 0"/>
<feBlend mode="normal" in2="shape" result="effect1_innerShadow_152_7088"/>
</filter>
<filter id="filter2_d_152_7088" x="3.14097" y="3.91175" width="35.1407" height="36.0947" filterUnits="userSpaceOnUse" color-interpolation-filters="sRGB">
<feFlood flood-opacity="0" result="BackgroundImageFix"/>
<feColorMatrix in="SourceAlpha" type="matrix" values="0 0 0 0 0 0 0 0 0 0 0 0 0 0 0 0 0 0 127 0" result="hardAlpha"/>
<feOffset dx="0.8" dy="1.6"/>
<feGaussianBlur stdDeviation="3.2"/>
<feComposite in2="hardAlpha" operator="out"/>
<feColorMatrix type="matrix" values="0 0 0 0 0.968627 0 0 0 0 0.603922 0 0 0 0 0.337255 0 0 0 1 0"/>
<feBlend mode="normal" in2="BackgroundImageFix" result="effect1_dropShadow_152_7088"/>
<feBlend mode="normal" in="SourceGraphic" in2="effect1_dropShadow_152_7088" result="shape"/>
</filter>
<filter id="filter3_i_152_7088" x="8.74097" y="12.0921" width="10.3013" height="10.3013" filterUnits="userSpaceOnUse" color-interpolation-filters="sRGB">
<feFlood flood-opacity="0" result="BackgroundImageFix"/>
<feBlend mode="normal" in="SourceGraphic" in2="BackgroundImageFix" result="shape"/>
<feColorMatrix in="SourceAlpha" type="matrix" values="0 0 0 0 0 0 0 0 0 0 0 0 0 0 0 0 0 0 127 0" result="hardAlpha"/>
<feOffset dx="0.222222" dy="0.222222"/>
<feGaussianBlur stdDeviation="0.444444"/>
<feComposite in2="hardAlpha" operator="arithmetic" k2="-1" k3="1"/>
<feColorMatrix type="matrix" values="0 0 0 0 1 0 0 0 0 1 0 0 0 0 1 0 0 0 0.52 0"/>
<feBlend mode="normal" in2="shape" result="effect1_innerShadow_152_7088"/>
</filter>
<filter id="filter4_i_152_7088" x="18.5762" y="8.71175" width="10.3013" height="10.3013" filterUnits="userSpaceOnUse" color-interpolation-filters="sRGB">
<feFlood flood-opacity="0" result="BackgroundImageFix"/>
<feBlend mode="normal" in="SourceGraphic" in2="BackgroundImageFix" result="shape"/>
<feColorMatrix in="SourceAlpha" type="matrix" values="0 0 0 0 0 0 0 0 0 0 0 0 0 0 0 0 0 0 127 0" result="hardAlpha"/>
<feOffset dx="0.222222" dy="0.222222"/>
<feGaussianBlur stdDeviation="0.444444"/>
<feComposite in2="hardAlpha" operator="arithmetic" k2="-1" k3="1"/>
<feColorMatrix type="matrix" values="0 0 0 0 1 0 0 0 0 1 0 0 0 0 1 0 0 0 0.52 0"/>
<feBlend mode="normal" in2="shape" result="effect1_innerShadow_152_7088"/>
</filter>
<filter id="filter5_i_152_7088" x="12.1216" y="21.9273" width="10.3013" height="10.3013" filterUnits="userSpaceOnUse" color-interpolation-filters="sRGB">
<feFlood flood-opacity="0" result="BackgroundImageFix"/>
<feBlend mode="normal" in="SourceGraphic" in2="BackgroundImageFix" result="shape"/>
<feColorMatrix in="SourceAlpha" type="matrix" values="0 0 0 0 0 0 0 0 0 0 0 0 0 0 0 0 0 0 127 0" result="hardAlpha"/>
<feOffset dx="0.222222" dy="0.222222"/>
<feGaussianBlur stdDeviation="0.444444"/>
<feComposite in2="hardAlpha" operator="arithmetic" k2="-1" k3="1"/>
<feColorMatrix type="matrix" values="0 0 0 0 1 0 0 0 0 1 0 0 0 0 1 0 0 0 0.52 0"/>
<feBlend mode="normal" in2="shape" result="effect1_innerShadow_152_7088"/>
</filter>
<filter id="filter6_d_152_7088" x="19.5985" y="16.8012" width="14.6832" height="16.7159" filterUnits="userSpaceOnUse" color-interpolation-filters="sRGB">
<feFlood flood-opacity="0" result="BackgroundImageFix"/>
<feColorMatrix in="SourceAlpha" type="matrix" values="0 0 0 0 0 0 0 0 0 0 0 0 0 0 0 0 0 0 127 0" result="hardAlpha"/>
<feOffset dy="1.6"/>
<feGaussianBlur stdDeviation="1.6"/>
<feComposite in2="hardAlpha" operator="out"/>
<feColorMatrix type="matrix" values="0 0 0 0 1 0 0 0 0 0.494118 0 0 0 0 0.254902 0 0 0 1 0"/>
<feBlend mode="normal" in2="BackgroundImageFix" result="effect1_dropShadow_152_7088"/>
<feBlend mode="normal" in="SourceGraphic" in2="effect1_dropShadow_152_7088" result="shape"/>
</filter>
<filter id="filter7_i_152_7088" x="22.7985" y="20.4307" width="4.25787" height="4.54376" filterUnits="userSpaceOnUse" color-interpolation-filters="sRGB">
<feFlood flood-opacity="0" result="BackgroundImageFix"/>
<feBlend mode="normal" in="SourceGraphic" in2="BackgroundImageFix" result="shape"/>
<feColorMatrix in="SourceAlpha" type="matrix" values="0 0 0 0 0 0 0 0 0 0 0 0 0 0 0 0 0 0 127 0" result="hardAlpha"/>
<feOffset dx="0.222223" dy="0.222223"/>
<feGaussianBlur stdDeviation="0.444446"/>
<feComposite in2="hardAlpha" operator="arithmetic" k2="-1" k3="1"/>
<feColorMatrix type="matrix" values="0 0 0 0 1 0 0 0 0 1 0 0 0 0 1 0 0 0 0.52 0"/>
<feBlend mode="normal" in2="shape" result="effect1_innerShadow_152_7088"/>
</filter>
<filter id="filter8_i_152_7088" x="27.046" y="22.3665" width="4.25787" height="4.54376" filterUnits="userSpaceOnUse" color-interpolation-filters="sRGB">
<feFlood flood-opacity="0" result="BackgroundImageFix"/>
<feBlend mode="normal" in="SourceGraphic" in2="BackgroundImageFix" result="shape"/>
<feColorMatrix in="SourceAlpha" type="matrix" values="0 0 0 0 0 0 0 0 0 0 0 0 0 0 0 0 0 0 127 0" result="hardAlpha"/>
<feOffset dx="0.222223" dy="0.222223"/>
<feGaussianBlur stdDeviation="0.444446"/>
<feComposite in2="hardAlpha" operator="arithmetic" k2="-1" k3="1"/>
<feColorMatrix type="matrix" values="0 0 0 0 1 0 0 0 0 1 0 0 0 0 1 0 0 0 0.52 0"/>
<feBlend mode="normal" in2="shape" result="effect1_innerShadow_152_7088"/>
</filter>
<filter id="filter9_i_152_7088" x="22.8094" y="23.1715" width="6.56255" height="5.76788" filterUnits="userSpaceOnUse" color-interpolation-filters="sRGB">
<feFlood flood-opacity="0" result="BackgroundImageFix"/>
<feBlend mode="normal" in="SourceGraphic" in2="BackgroundImageFix" result="shape"/>
<feColorMatrix in="SourceAlpha" type="matrix" values="0 0 0 0 0 0 0 0 0 0 0 0 0 0 0 0 0 0 127 0" result="hardAlpha"/>
<feOffset dx="0.222223" dy="0.222223"/>
<feGaussianBlur stdDeviation="0.444446"/>
<feComposite in2="hardAlpha" operator="arithmetic" k2="-1" k3="1"/>
<feColorMatrix type="matrix" values="0 0 0 0 1 0 0 0 0 1 0 0 0 0 1 0 0 0 0.52 0"/>
<feBlend mode="normal" in2="shape" result="effect1_innerShadow_152_7088"/>
</filter>
<filter id="filter10_i_152_7088" x="24.731" y="18.4012" width="6.56255" height="5.76788" filterUnits="userSpaceOnUse" color-interpolation-filters="sRGB">
<feFlood flood-opacity="0" result="BackgroundImageFix"/>
<feBlend mode="normal" in="SourceGraphic" in2="BackgroundImageFix" result="shape"/>
<feColorMatrix in="SourceAlpha" type="matrix" values="0 0 0 0 0 0 0 0 0 0 0 0 0 0 0 0 0 0 127 0" result="hardAlpha"/>
<feOffset dx="0.222223" dy="0.222223"/>
<feGaussianBlur stdDeviation="0.444446"/>
<feComposite in2="hardAlpha" operator="arithmetic" k2="-1" k3="1"/>
<feColorMatrix type="matrix" values="0 0 0 0 1 0 0 0 0 1 0 0 0 0 1 0 0 0 0.52 0"/>
<feBlend mode="normal" in2="shape" result="effect1_innerShadow_152_7088"/>
</filter>
<linearGradient id="paint0_linear_152_7088" x1="4.8" y1="12.0017" x2="31.4667" y2="40.8017" gradientUnits="userSpaceOnUse">
<stop stop-color="#FFC5B0"/>
<stop offset="1" stop-color="#FF8E66"/>
</linearGradient>
<linearGradient id="paint1_linear_152_7088" x1="5.8351" y1="12.5569" x2="24.8218" y2="37.4636" gradientUnits="userSpaceOnUse">
<stop stop-color="#FFD0BF"/>
<stop offset="1" stop-color="#FE9A75"/>
</linearGradient>
<linearGradient id="paint2_linear_152_7088" x1="8.79936" y1="14.8178" x2="16.5771" y2="22.8178" gradientUnits="userSpaceOnUse">
<stop stop-color="#FFECE1"/>
<stop offset="1" stop-color="#FFCCAF"/>
</linearGradient>
<linearGradient id="paint3_linear_152_7088" x1="8.57713" y1="14.8178" x2="17.0216" y2="23.04" gradientUnits="userSpaceOnUse">
<stop stop-color="#FCB5A6" stop-opacity="0.73"/>
<stop offset="1" stop-color="#F99373" stop-opacity="0.87"/>
</linearGradient>
<linearGradient id="paint4_linear_152_7088" x1="18.6346" y1="11.4374" x2="26.4123" y2="19.4374" gradientUnits="userSpaceOnUse">
<stop stop-color="#FFECE1"/>
<stop offset="1" stop-color="#FFCCAF"/>
</linearGradient>
<linearGradient id="paint5_linear_152_7088" x1="18.4123" y1="11.4374" x2="26.8568" y2="19.6597" gradientUnits="userSpaceOnUse">
<stop stop-color="#FCB5A6" stop-opacity="0.73"/>
<stop offset="1" stop-color="#F99373" stop-opacity="0.87"/>
</linearGradient>
<linearGradient id="paint6_linear_152_7088" x1="12.18" y1="24.653" x2="19.9577" y2="32.653" gradientUnits="userSpaceOnUse">
<stop stop-color="#FFECE1"/>
<stop offset="1" stop-color="#FFCCAF"/>
</linearGradient>
<linearGradient id="paint7_linear_152_7088" x1="11.9577" y1="24.653" x2="20.4022" y2="32.8752" gradientUnits="userSpaceOnUse">
<stop stop-color="#FCB5A6" stop-opacity="0.73"/>
<stop offset="1" stop-color="#F99373" stop-opacity="0.87"/>
</linearGradient>
<linearGradient id="paint8_linear_152_7088" x1="29.7578" y1="25.1786" x2="22.9173" y2="20.2915" gradientUnits="userSpaceOnUse">
<stop offset="0.0001" stop-color="#FFCCC1"/>
<stop offset="0.225" stop-color="#FFCCAF"/>
<stop offset="1" stop-color="#FFDAC5"/>
</linearGradient>
<linearGradient id="paint9_linear_152_7088" x1="30.0915" y1="25.0986" x2="22.4174" y2="21.4764" gradientUnits="userSpaceOnUse">
<stop stop-color="#FFE1DA" stop-opacity="0.73"/>
<stop offset="1" stop-color="#FFC0AC" stop-opacity="0.87"/>
</linearGradient>
<linearGradient id="paint10_linear_152_7088" x1="24.1223" y1="21.9402" x2="30.9628" y2="26.8273" gradientUnits="userSpaceOnUse">
<stop offset="0.0001" stop-color="#FFCCC1"/>
<stop offset="0.225" stop-color="#FFCCAF"/>
<stop offset="1" stop-color="#FFDAC5"/>
</linearGradient>
<linearGradient id="paint11_linear_152_7088" x1="23.7886" y1="22.0202" x2="31.4627" y2="25.6424" gradientUnits="userSpaceOnUse">
<stop stop-color="#FFE1DA" stop-opacity="0.73"/>
<stop offset="1" stop-color="#FFC0AC" stop-opacity="0.87"/>
</linearGradient>
<linearGradient id="paint12_linear_152_7088" x1="29.0264" y1="19.9099" x2="22.9175" y2="28.4606" gradientUnits="userSpaceOnUse">
<stop offset="0.0001" stop-color="#FF6C4C" stop-opacity="0.8"/>
<stop offset="0.225" stop-color="#FF985E"/>
<stop offset="1" stop-color="#FF6624" stop-opacity="0.9"/>
</linearGradient>
<linearGradient id="paint13_linear_152_7088" x1="28.9264" y1="19.4928" x2="24.3987" y2="29.0855" gradientUnits="userSpaceOnUse">
<stop stop-color="#FFE1DA" stop-opacity="0.73"/>
<stop offset="1" stop-color="#FFC0AC" stop-opacity="0.87"/>
</linearGradient>
<linearGradient id="paint14_linear_152_7088" x1="24.8543" y1="27.2085" x2="30.9632" y2="18.6578" gradientUnits="userSpaceOnUse">
<stop offset="0.0001" stop-color="#FF6C4C" stop-opacity="0.8"/>
<stop offset="0.225" stop-color="#FF985E"/>
<stop offset="1" stop-color="#FF6624" stop-opacity="0.9"/>
</linearGradient>
<linearGradient id="paint15_linear_152_7088" x1="24.9543" y1="27.6256" x2="29.4821" y2="18.0329" gradientUnits="userSpaceOnUse">
<stop stop-color="#FFE1DA" stop-opacity="0.73"/>
<stop offset="1" stop-color="#FFC0AC" stop-opacity="0.87"/>
</linearGradient>
<clipPath id="clip0_152_7088">
<rect width="32" height="32" fill="white" transform="translate(0 10.4017) rotate(-18.9688)"/>
</clipPath>
</defs>
</svg>
