<svg width="40" height="40" viewBox="0 0 40 40" fill="none" xmlns="http://www.w3.org/2000/svg">
<g clip-path="url(#clip0_152_7044)">
<g filter="url(#filter0_ii_152_7044)">
<rect y="8.28223" width="32" height="32" rx="12.8" transform="rotate(-15 0 8.28223)" fill="url(#paint0_linear_152_7044)"/>
</g>
<g filter="url(#filter1_i_152_7044)">
<rect x="1.3064" y="9.03613" width="29.8667" height="29.8667" rx="12.8" transform="rotate(-15 1.3064 9.03613)" fill="url(#paint1_linear_152_7044)"/>
</g>
<g filter="url(#filter2_di_152_7044)">
<path d="M22.071 10.0129C23.7529 9.5622 24.5943 9.33676 25.3244 9.49195C25.9665 9.62851 26.5488 9.96468 26.9881 10.4525C27.4874 11.0072 27.713 11.8488 28.1636 13.5305L28.2961 14.0247C28.7467 15.7064 28.9722 16.5481 28.817 17.2781C28.6946 17.8534 28.4105 18.3793 28.0021 18.7986C27.9262 18.5068 27.8435 18.1879 27.75 17.839L27.311 16.2005C26.7839 14.2333 26.5201 13.2495 25.936 12.6007C25.4222 12.0301 24.741 11.6369 23.99 11.4772C23.1361 11.2957 22.1522 11.5592 20.185 12.0863L13.8631 13.7803C12.5296 14.1376 11.6479 14.3744 11.0163 14.6715C11.1612 14.0553 11.4888 13.4973 11.9599 13.073C12.5146 12.5735 13.356 12.3481 15.0379 11.8974L22.071 10.0129Z" fill="url(#paint2_linear_152_7044)"/>
</g>
<g filter="url(#filter3_ddi_152_7044)">
<path d="M10.5281 23.7962C11.012 23.9856 11.5377 24.1405 12.0955 24.2578C14.4425 24.7511 17.4481 24.6302 20.5622 23.7958C23.3393 23.0517 25.7567 21.8576 27.5144 20.4731C27.7798 21.5146 27.8897 22.1483 27.7693 22.7149C27.6327 23.3569 27.2965 23.9394 26.8088 24.3786C26.254 24.878 25.4125 25.1036 23.7308 25.5542L22.197 25.9652C22.0128 26.0145 21.9031 26.2034 21.9523 26.3876L22.2442 27.4771C22.3498 27.8721 21.9876 28.2337 21.5926 28.1279L17.9481 27.1512C17.8895 27.1355 17.8277 27.1359 17.7692 27.1516L16.6571 27.4496C14.9753 27.9002 14.1338 28.1256 13.4037 27.9705C12.7618 27.8339 12.1792 27.4976 11.74 27.01C11.2406 26.4553 11.0151 25.6137 10.5645 23.932L10.5281 23.7962ZM20.4228 13.2084C22.1047 12.7578 22.946 12.5323 23.6761 12.6875C24.3182 12.8241 24.9006 13.1602 25.3398 13.6481C25.8391 14.2028 26.0648 15.0443 26.5154 16.726L27.2484 19.4616C27.2817 19.5859 27.312 19.706 27.3428 19.8214C25.6502 21.2148 23.23 22.444 20.403 23.2015C17.3622 24.0162 14.4562 24.1242 12.222 23.6547C11.5087 23.5047 10.8732 23.2984 10.3261 23.0425L9.83147 21.1965C9.3809 19.5149 9.15556 18.6731 9.31055 17.9431C9.447 17.3011 9.78348 16.7187 10.2711 16.2794C10.8258 15.7799 11.6672 15.5545 13.349 15.1038L20.4228 13.2084Z" fill="url(#paint3_linear_152_7044)"/>
</g>
<g filter="url(#filter4_i_152_7044)">
<circle cx="14.8405" cy="20.8693" r="1.23077" transform="rotate(-15 14.8405 20.8693)" fill="url(#paint4_linear_152_7044)"/>
<circle cx="18.4068" cy="19.914" r="1.23077" transform="rotate(-15 18.4068 19.914)" fill="url(#paint5_linear_152_7044)"/>
<circle cx="21.9734" cy="18.9579" r="1.23077" transform="rotate(-15 21.9734 18.9579)" fill="url(#paint6_linear_152_7044)"/>
</g>
<g filter="url(#filter5_di_152_7044)">
<path d="M8.96208 17.9836C8.12498 19.1169 7.82155 20.2319 8.08198 21.2039C8.44482 22.5569 9.89113 23.6061 12.1865 24.0935C14.4547 24.575 17.4154 24.4698 20.5196 23.6381C23.6239 22.8063 26.2413 21.4168 27.9649 19.8657C29.709 18.2959 30.437 16.6641 30.0747 15.311C29.8389 14.4309 29.1441 13.6803 28.0562 13.1281L27.7501 11.9858C29.3783 12.6172 30.5839 13.6418 30.9671 15.0719C31.4663 16.9362 30.4132 18.9045 28.5817 20.5527C26.729 22.2199 23.9732 23.6681 20.7584 24.5295C17.5436 25.3908 14.433 25.5147 11.9949 24.9972C9.58485 24.4855 7.68942 23.3072 7.18963 21.443C6.76232 19.8482 7.47172 18.1785 8.83171 16.6971L8.96208 17.9836Z" fill="url(#paint7_linear_152_7044)"/>
</g>
</g>
<defs>
<filter id="filter0_ii_152_7044" x="2.34325" y="2.87671" width="34.2386" height="33.7051" filterUnits="userSpaceOnUse" color-interpolation-filters="sRGB">
<feFlood flood-opacity="0" result="BackgroundImageFix"/>
<feBlend mode="normal" in="SourceGraphic" in2="BackgroundImageFix" result="shape"/>
<feColorMatrix in="SourceAlpha" type="matrix" values="0 0 0 0 0 0 0 0 0 0 0 0 0 0 0 0 0 0 127 0" result="hardAlpha"/>
<feOffset dx="0.266667" dy="0.266667"/>
<feGaussianBlur stdDeviation="1.06667"/>
<feComposite in2="hardAlpha" operator="arithmetic" k2="-1" k3="1"/>
<feColorMatrix type="matrix" values="0 0 0 0 0.544819 0 0 0 0 0.902523 0 0 0 0 0.580589 0 0 0 1 0"/>
<feBlend mode="normal" in2="shape" result="effect1_innerShadow_152_7044"/>
<feColorMatrix in="SourceAlpha" type="matrix" values="0 0 0 0 0 0 0 0 0 0 0 0 0 0 0 0 0 0 127 0" result="hardAlpha"/>
<feOffset dx="-0.533333"/>
<feGaussianBlur stdDeviation="1.06667"/>
<feComposite in2="hardAlpha" operator="arithmetic" k2="-1" k3="1"/>
<feColorMatrix type="matrix" values="0 0 0 0 0.443137 0 0 0 0 0.952941 0 0 0 0 0.524706 0 0 0 0.25 0"/>
<feBlend mode="normal" in2="effect1_innerShadow_152_7044" result="effect2_innerShadow_152_7044"/>
</filter>
<filter id="filter1_i_152_7044" x="4.1825" y="4.18213" width="32.4269" height="32.4269" filterUnits="userSpaceOnUse" color-interpolation-filters="sRGB">
<feFlood flood-opacity="0" result="BackgroundImageFix"/>
<feBlend mode="normal" in="SourceGraphic" in2="BackgroundImageFix" result="shape"/>
<feColorMatrix in="SourceAlpha" type="matrix" values="0 0 0 0 0 0 0 0 0 0 0 0 0 0 0 0 0 0 127 0" result="hardAlpha"/>
<feOffset dx="1.6" dy="1.6"/>
<feGaussianBlur stdDeviation="1.06667"/>
<feComposite in2="hardAlpha" operator="arithmetic" k2="-1" k3="1"/>
<feColorMatrix type="matrix" values="0 0 0 0 1 0 0 0 0 1 0 0 0 0 1 0 0 0 0.08 0"/>
<feBlend mode="normal" in2="shape" result="effect1_innerShadow_152_7044"/>
</filter>
<filter id="filter2_di_152_7044" x="7.56169" y="7.02493" width="26.1405" height="17.6464" filterUnits="userSpaceOnUse" color-interpolation-filters="sRGB">
<feFlood flood-opacity="0" result="BackgroundImageFix"/>
<feColorMatrix in="SourceAlpha" type="matrix" values="0 0 0 0 0 0 0 0 0 0 0 0 0 0 0 0 0 0 127 0" result="hardAlpha"/>
<feOffset dx="0.690909" dy="1.72727"/>
<feGaussianBlur stdDeviation="2.07273"/>
<feComposite in2="hardAlpha" operator="out"/>
<feColorMatrix type="matrix" values="0 0 0 0 0.2975 0 0 0 0 0.85 0 0 0 0 0.7174 0 0 0 0.42 0"/>
<feBlend mode="normal" in2="BackgroundImageFix" result="effect1_dropShadow_152_7044"/>
<feBlend mode="normal" in="SourceGraphic" in2="effect1_dropShadow_152_7044" result="shape"/>
<feColorMatrix in="SourceAlpha" type="matrix" values="0 0 0 0 0 0 0 0 0 0 0 0 0 0 0 0 0 0 127 0" result="hardAlpha"/>
<feOffset dx="0.345454" dy="0.345454"/>
<feGaussianBlur stdDeviation="0.690909"/>
<feComposite in2="hardAlpha" operator="arithmetic" k2="-1" k3="1"/>
<feColorMatrix type="matrix" values="0 0 0 0 1 0 0 0 0 1 0 0 0 0 1 0 0 0 0.63 0"/>
<feBlend mode="normal" in2="shape" result="effect2_innerShadow_152_7044"/>
</filter>
<filter id="filter3_ddi_152_7044" x="5.56941" y="10.1771" width="27.0849" height="23.8421" filterUnits="userSpaceOnUse" color-interpolation-filters="sRGB">
<feFlood flood-opacity="0" result="BackgroundImageFix"/>
<feColorMatrix in="SourceAlpha" type="matrix" values="0 0 0 0 0 0 0 0 0 0 0 0 0 0 0 0 0 0 127 0" result="hardAlpha"/>
<feOffset dx="0.690909" dy="1.72727"/>
<feGaussianBlur stdDeviation="2.07273"/>
<feComposite in2="hardAlpha" operator="out"/>
<feColorMatrix type="matrix" values="0 0 0 0 0.208958 0 0 0 0 0.85 0 0 0 0 0.657687 0 0 0 0.42 0"/>
<feBlend mode="normal" in2="BackgroundImageFix" result="effect1_dropShadow_152_7044"/>
<feColorMatrix in="SourceAlpha" type="matrix" values="0 0 0 0 0 0 0 0 0 0 0 0 0 0 0 0 0 0 127 0" result="hardAlpha"/>
<feOffset dy="1.23077"/>
<feGaussianBlur stdDeviation="1.84615"/>
<feComposite in2="hardAlpha" operator="out"/>
<feColorMatrix type="matrix" values="0 0 0 0 0.280194 0 0 0 0 0.900326 0 0 0 0 0.602662 0 0 0 0.67 0"/>
<feBlend mode="normal" in2="effect1_dropShadow_152_7044" result="effect2_dropShadow_152_7044"/>
<feBlend mode="normal" in="SourceGraphic" in2="effect2_dropShadow_152_7044" result="shape"/>
<feColorMatrix in="SourceAlpha" type="matrix" values="0 0 0 0 0 0 0 0 0 0 0 0 0 0 0 0 0 0 127 0" result="hardAlpha"/>
<feOffset dx="0.345454" dy="0.345454"/>
<feGaussianBlur stdDeviation="0.690909"/>
<feComposite in2="hardAlpha" operator="arithmetic" k2="-1" k3="1"/>
<feColorMatrix type="matrix" values="0 0 0 0 1 0 0 0 0 1 0 0 0 0 1 0 0 0 0.63 0"/>
<feBlend mode="normal" in2="shape" result="effect3_innerShadow_152_7044"/>
</filter>
<filter id="filter4_i_152_7044" x="13.3331" y="17.4507" width="10.3016" height="5.07987" filterUnits="userSpaceOnUse" color-interpolation-filters="sRGB">
<feFlood flood-opacity="0" result="BackgroundImageFix"/>
<feBlend mode="normal" in="SourceGraphic" in2="BackgroundImageFix" result="shape"/>
<feColorMatrix in="SourceAlpha" type="matrix" values="0 0 0 0 0 0 0 0 0 0 0 0 0 0 0 0 0 0 127 0" result="hardAlpha"/>
<feOffset dx="0.153846" dy="0.153846"/>
<feGaussianBlur stdDeviation="0.307692"/>
<feComposite in2="hardAlpha" operator="arithmetic" k2="-1" k3="1"/>
<feColorMatrix type="matrix" values="0 0 0 0 1 0 0 0 0 1 0 0 0 0 1 0 0 0 1 0"/>
<feBlend mode="normal" in2="shape" result="effect1_innerShadow_152_7044"/>
</filter>
<filter id="filter5_di_152_7044" x="3.98875" y="9.83199" width="31.4099" height="20.703" filterUnits="userSpaceOnUse" color-interpolation-filters="sRGB">
<feFlood flood-opacity="0" result="BackgroundImageFix"/>
<feColorMatrix in="SourceAlpha" type="matrix" values="0 0 0 0 0 0 0 0 0 0 0 0 0 0 0 0 0 0 127 0" result="hardAlpha"/>
<feOffset dx="0.615385" dy="1.53846"/>
<feGaussianBlur stdDeviation="1.84615"/>
<feComposite in2="hardAlpha" operator="out"/>
<feColorMatrix type="matrix" values="0 0 0 0 0.337255 0 0 0 0 0.529412 0 0 0 0 0.968627 0 0 0 0.42 0"/>
<feBlend mode="normal" in2="BackgroundImageFix" result="effect1_dropShadow_152_7044"/>
<feBlend mode="normal" in="SourceGraphic" in2="effect1_dropShadow_152_7044" result="shape"/>
<feColorMatrix in="SourceAlpha" type="matrix" values="0 0 0 0 0 0 0 0 0 0 0 0 0 0 0 0 0 0 127 0" result="hardAlpha"/>
<feOffset dx="0.307692" dy="0.307692"/>
<feGaussianBlur stdDeviation="0.615385"/>
<feComposite in2="hardAlpha" operator="arithmetic" k2="-1" k3="1"/>
<feColorMatrix type="matrix" values="0 0 0 0 1 0 0 0 0 1 0 0 0 0 1 0 0 0 0.63 0"/>
<feBlend mode="normal" in2="shape" result="effect2_innerShadow_152_7044"/>
</filter>
<linearGradient id="paint0_linear_152_7044" x1="4.8" y1="9.88223" x2="31.4667" y2="38.6822" gradientUnits="userSpaceOnUse">
<stop stop-color="#ADFAE0"/>
<stop offset="1" stop-color="#2DDEA4"/>
</linearGradient>
<linearGradient id="paint1_linear_152_7044" x1="3.8398" y1="7.56953" x2="24.7731" y2="35.4361" gradientUnits="userSpaceOnUse">
<stop stop-color="#CCFFED"/>
<stop offset="1" stop-color="#44DE9E"/>
</linearGradient>
<linearGradient id="paint2_linear_152_7044" x1="11.7211" y1="12.7861" x2="20.2131" y2="24.52" gradientUnits="userSpaceOnUse">
<stop offset="0.0001" stop-color="#19B791"/>
<stop offset="0.411523" stop-color="#17CA7F"/>
<stop offset="1" stop-color="#1ACB76"/>
</linearGradient>
<linearGradient id="paint3_linear_152_7044" x1="10.4795" y1="16.7165" x2="25.2235" y2="30.7585" gradientUnits="userSpaceOnUse">
<stop offset="0.0001" stop-color="#E9FFFA"/>
<stop offset="1" stop-color="#C7FFEB"/>
</linearGradient>
<linearGradient id="paint4_linear_152_7044" x1="13.8642" y1="19.7742" x2="15.7413" y2="22.407" gradientUnits="userSpaceOnUse">
<stop offset="0.0001" stop-color="#21916F"/>
<stop offset="0.225" stop-color="#10AA72"/>
<stop offset="1" stop-color="#1ACC8C"/>
</linearGradient>
<linearGradient id="paint5_linear_152_7044" x1="17.4305" y1="18.8189" x2="19.3076" y2="21.4517" gradientUnits="userSpaceOnUse">
<stop offset="0.0001" stop-color="#21916F"/>
<stop offset="0.225" stop-color="#10AA72"/>
<stop offset="1" stop-color="#1ACC8C"/>
</linearGradient>
<linearGradient id="paint6_linear_152_7044" x1="20.9971" y1="17.8629" x2="22.8742" y2="20.4956" gradientUnits="userSpaceOnUse">
<stop offset="0.0001" stop-color="#21916F"/>
<stop offset="0.225" stop-color="#10AA72"/>
<stop offset="1" stop-color="#1ACC8C"/>
</linearGradient>
<linearGradient id="paint7_linear_152_7044" x1="8.72305" y1="17.3341" x2="16.7204" y2="28.7454" gradientUnits="userSpaceOnUse">
<stop offset="0.0001" stop-color="#3DCD90"/>
<stop offset="0.225" stop-color="#12C67A"/>
<stop offset="1" stop-color="#22B785"/>
</linearGradient>
<clipPath id="clip0_152_7044">
<rect width="32" height="32" fill="white" transform="translate(0 8.28223) rotate(-15)"/>
</clipPath>
</defs>
</svg>
