<svg width="59" height="59" viewBox="0 0 59 59" fill="none" xmlns="http://www.w3.org/2000/svg">
<g clip-path="url(#clip0_152_7036)">
<g filter="url(#filter0_ii_152_7036)">
<rect x="-0.000183105" y="12.4226" width="48" height="48" rx="19.2" transform="rotate(-15 -0.000183105 12.4226)" fill="url(#paint0_linear_152_7036)"/>
</g>
<g filter="url(#filter1_i_152_7036)">
<rect x="1.9592" y="13.5535" width="44.8" height="44.8" rx="19.2" transform="rotate(-15 1.9592 13.5535)" fill="url(#paint1_linear_152_7036)"/>
</g>
<g filter="url(#filter2_d_152_7036)">
<path d="M40.5442 21.6436L39.3146 18.4366C37.8504 14.9733 35.8259 13.9454 32.3358 14.8806L29.5246 15.6339L27.7616 16.1062L24.1404 17.0765L22.3775 17.5489L19.5186 18.3149C16.0165 19.2533 14.7891 21.1526 15.2504 24.9229L15.8065 28.2848C16.0289 29.5913 16.7063 30.7376 17.7153 31.5014C18.9366 32.4381 20.509 32.7317 22.0575 32.3168C23.5584 31.9146 24.7987 30.778 25.3816 29.3323C26.514 30.3183 28.0968 30.6985 29.6335 30.2868C31.1701 29.8751 32.3246 28.7997 32.8274 27.3883C34.0606 28.3218 35.6728 28.6686 37.1498 28.2728C38.7341 27.8483 39.9752 26.7625 40.5367 25.2843C40.996 24.1398 40.9953 22.8505 40.5442 21.6436Z" fill="white" fill-opacity="0.9"/>
<path d="M30.1072 35.1518C28.6359 35.712 27.837 37.3048 28.2456 38.8296L29.1201 42.0934C29.2063 42.415 29.5386 42.6069 29.8602 42.5207L35.5421 40.9982C35.8638 40.912 36.0556 40.5798 35.9694 40.2581L35.2066 37.4112C34.5514 34.9184 32.7703 34.1318 30.1072 35.1518Z" fill="white" fill-opacity="0.9"/>
<path d="M41.3215 29.2615L42.2726 32.8113C43.1536 36.0989 41.2003 39.4821 37.9126 40.3631C37.591 40.4492 37.2587 40.2574 37.1725 39.9358L36.4097 37.0888C36.0012 35.5641 35.2174 34.4974 34.0951 33.93C33.1023 33.4172 31.9226 33.3503 30.5765 33.711C30.2787 33.7908 29.9841 33.8825 29.6721 34.0044C27.6092 34.787 26.4799 37.0046 27.0544 39.1487L27.9289 42.4126C28.0151 42.7342 27.8233 43.0665 27.5017 43.1527C24.214 44.0336 20.8308 42.0803 19.9499 38.7926L19.0051 35.2667C18.7817 34.4329 19.4536 33.6528 20.3013 33.7193C20.6516 33.7403 20.9956 33.7376 21.3419 33.6958C21.4912 33.6814 21.6524 33.6637 21.7954 33.6254C21.9923 33.5981 22.1861 33.559 22.3767 33.5079C23.7585 33.1377 24.9792 32.2616 25.8151 31.0929C27.0757 31.6998 28.547 31.8546 29.9526 31.478C31.3702 31.0981 32.5496 30.2587 33.3378 29.1027C34.6429 29.685 36.1111 29.8278 37.469 29.4639C37.6834 29.4065 37.8946 29.3371 38.0908 29.259C38.2305 29.2088 38.3584 29.1618 38.483 29.1029C38.8395 28.9563 39.1443 28.7597 39.4491 28.5631C40.1532 28.0936 41.1045 28.4515 41.3215 29.2615Z" fill="white" fill-opacity="0.9"/>
</g>
</g>
<defs>
<filter id="filter0_ii_152_7036" x="3.5147" y="4.31421" width="51.358" height="50.558" filterUnits="userSpaceOnUse" color-interpolation-filters="sRGB">
<feFlood flood-opacity="0" result="BackgroundImageFix"/>
<feBlend mode="normal" in="SourceGraphic" in2="BackgroundImageFix" result="shape"/>
<feColorMatrix in="SourceAlpha" type="matrix" values="0 0 0 0 0 0 0 0 0 0 0 0 0 0 0 0 0 0 127 0" result="hardAlpha"/>
<feOffset dx="0.4" dy="0.4"/>
<feGaussianBlur stdDeviation="1.6"/>
<feComposite in2="hardAlpha" operator="arithmetic" k2="-1" k3="1"/>
<feColorMatrix type="matrix" values="0 0 0 0 1 0 0 0 0 0.918417 0 0 0 0 0.629167 0 0 0 1 0"/>
<feBlend mode="normal" in2="shape" result="effect1_innerShadow_152_7036"/>
<feColorMatrix in="SourceAlpha" type="matrix" values="0 0 0 0 0 0 0 0 0 0 0 0 0 0 0 0 0 0 127 0" result="hardAlpha"/>
<feOffset dx="-0.8"/>
<feGaussianBlur stdDeviation="1.6"/>
<feComposite in2="hardAlpha" operator="arithmetic" k2="-1" k3="1"/>
<feColorMatrix type="matrix" values="0 0 0 0 0.952941 0 0 0 0 0.810196 0 0 0 0 0.443137 0 0 0 0.25 0"/>
<feBlend mode="normal" in2="effect1_innerShadow_152_7036" result="effect2_innerShadow_152_7036"/>
</filter>
<filter id="filter1_i_152_7036" x="6.27335" y="6.27246" width="48.6403" height="48.6402" filterUnits="userSpaceOnUse" color-interpolation-filters="sRGB">
<feFlood flood-opacity="0" result="BackgroundImageFix"/>
<feBlend mode="normal" in="SourceGraphic" in2="BackgroundImageFix" result="shape"/>
<feColorMatrix in="SourceAlpha" type="matrix" values="0 0 0 0 0 0 0 0 0 0 0 0 0 0 0 0 0 0 127 0" result="hardAlpha"/>
<feOffset dx="2.4" dy="2.4"/>
<feGaussianBlur stdDeviation="1.6"/>
<feComposite in2="hardAlpha" operator="arithmetic" k2="-1" k3="1"/>
<feColorMatrix type="matrix" values="0 0 0 0 1 0 0 0 0 1 0 0 0 0 1 0 0 0 0.08 0"/>
<feBlend mode="normal" in2="shape" result="effect1_innerShadow_152_7036"/>
</filter>
<filter id="filter2_d_152_7036" x="7.26974" y="11.2693" width="44.2487" height="44.2485" filterUnits="userSpaceOnUse" color-interpolation-filters="sRGB">
<feFlood flood-opacity="0" result="BackgroundImageFix"/>
<feColorMatrix in="SourceAlpha" type="matrix" values="0 0 0 0 0 0 0 0 0 0 0 0 0 0 0 0 0 0 127 0" result="hardAlpha"/>
<feOffset dy="4"/>
<feGaussianBlur stdDeviation="2"/>
<feComposite in2="hardAlpha" operator="out"/>
<feColorMatrix type="matrix" values="0 0 0 0 1 0 0 0 0 0.696881 0 0 0 0 0.322115 0 0 0 1 0"/>
<feBlend mode="normal" in2="BackgroundImageFix" result="effect1_dropShadow_152_7036"/>
<feBlend mode="normal" in="SourceGraphic" in2="effect1_dropShadow_152_7036" result="shape"/>
</filter>
<linearGradient id="paint0_linear_152_7036" x1="7.19982" y1="14.8226" x2="47.1998" y2="58.0226" gradientUnits="userSpaceOnUse">
<stop stop-color="#FFD57F"/>
<stop offset="1" stop-color="#FDBE7B"/>
</linearGradient>
<linearGradient id="paint1_linear_152_7036" x1="8.6792" y1="15.7935" x2="37.1592" y2="53.1535" gradientUnits="userSpaceOnUse">
<stop stop-color="#FFF1C0"/>
<stop offset="1" stop-color="#FDC37F"/>
</linearGradient>
<clipPath id="clip0_152_7036">
<rect width="48" height="48" fill="white" transform="translate(0 12.4233) rotate(-15)"/>
</clipPath>
</defs>
</svg>
